<?xml version="1.0" encoding="UTF-8" standalone="no"?>
<!-- Created with Inkscape (http://www.inkscape.org/) -->

<svg
   xmlns:dc="http://purl.org/dc/elements/1.1/"
   xmlns:cc="http://creativecommons.org/ns#"
   xmlns:rdf="http://www.w3.org/1999/02/22-rdf-syntax-ns#"
   xmlns:svg="http://www.w3.org/2000/svg"
   xmlns="http://www.w3.org/2000/svg"
   xmlns:sodipodi="http://sodipodi.sourceforge.net/DTD/sodipodi-0.dtd"
   xmlns:inkscape="http://www.inkscape.org/namespaces/inkscape"
   id="svg4190"
   version="1.1"
   inkscape:version="0.91 r13725"
   width="1139.1047"
   height="1064.5703"
   viewBox="0 0 1139.1048 1064.5704"
   sodipodi:docname="artisinal adhesives.svg">
  <metadata
     id="metadata4196">
    <rdf:RDF>
      <cc:Work
         rdf:about="">
        <dc:format>image/svg+xml</dc:format>
        <dc:type
           rdf:resource="http://purl.org/dc/dcmitype/StillImage" />
        <dc:title></dc:title>
      </cc:Work>
    </rdf:RDF>
  </metadata>
  <defs
     id="defs4194" />
  <sodipodi:namedview
     pagecolor="#ffffff"
     bordercolor="#666666"
     borderopacity="1"
     objecttolerance="10"
     gridtolerance="10"
     guidetolerance="10"
     inkscape:pageopacity="0"
     inkscape:pageshadow="2"
     inkscape:window-width="1380"
     inkscape:window-height="851"
     id="namedview4192"
     showgrid="false"
     fit-margin-top="0"
     fit-margin-left="0"
     fit-margin-right="0"
     fit-margin-bottom="0"
     inkscape:zoom="0.64337375"
     inkscape:cx="550.89831"
     inkscape:cy="544.6757"
     inkscape:window-x="64"
     inkscape:window-y="0"
     inkscape:window-maximized="0"
     inkscape:current-layer="svg4190" />
  <path
     style="fill:#000000"
     d="m 658.18026,1064.2894 c -1.42128,-0.5334 -9.49587,-4.7317 -26.08026,-13.5599 -23.43477,-12.4748 -47.39037,-24.6762 -55.7826,-28.4119 -2.73477,-1.2173 -2.99922,-1.2757 -5.7174,-1.2625 -1.89234,0.01 -3.31821,0.1841 -4.24338,0.5202 -1.49016,0.5414 -20.58384,10.2206 -42.85662,21.7254 -23.25189,12.0106 -37.61115,19.2458 -39.46872,19.8869 -2.71584,0.9375 -5.78661,1.2905 -7.1811,0.8255 -0.96234,-0.3209 -1.32786,-0.7041 -2.22582,-2.3339 -1.00845,-1.8304 -1.07436,-2.1156 -1.07436,-4.65 0,-2.3809 0.10437,-2.9128 0.88311,-4.5 0.4857,-0.99 1.51335,-2.4075 2.28369,-3.15 1.53123,-1.4759 3.24702,-2.3965 42.19641,-22.6402 27.71445,-14.4044 27.01299,-14.0113 27.24882,-15.2684 0.10116,-0.5392 0.0668,-1.4324 -0.0764,-1.985 -0.25935,-1.001 -0.30162,-1.0213 -11.34795,-5.4674 -21.34149,-8.58992 -41.62044,-16.46202 -45.08901,-17.50315 -1.92423,-0.5776 -4.87647,-1.5213 -6.56052,-2.097 -4.90293,-1.6762 -7.01634,-1.7337 -8.79243,-0.2392 -1.18365,0.9959 -1.8627,2.3513 -3.33564,6.65803 -3.10986,9.0926 -7.76145,16.56782 -14.44155,23.20792 -12.15957,12.0867 -35.5161,22.9626 -58.11849,27.0626 -8.87568,1.61 -11.82981,1.8225 -25.2,1.8125 -6.8475,-0.01 -14.9475,-0.1793 -18,-0.387 -14.71182,-1.0013 -28.8144,-2.174 -29.56185,-2.4582 -1.1961,-0.4548 -4.33815,-2.4351 -4.33815,-2.7342 0,-0.1394 0.57375,-1.2125 1.275,-2.3847 0.9381,-1.5681 2.66217,-3.4924 6.525,-7.2826 15.22668,-14.9404 33.30276,-27.0338 54.8478,-36.69492 17.69859,-7.93623 34.05138,-12.12713 51.9522,-13.31443 3.31515,-0.2199 5.63697,-0.516 6.3,-0.8034 l 1.05,-0.4552 -0.93879,-0.2622 c -0.51636,-0.1443 -19.82136,-3.2364 -42.9,-6.8715 -23.07867,-3.635 -43.44621,-6.8742 -45.26121,-7.1981 -1.815,-0.324 -3.42741,-0.5902 -3.58317,-0.5916 -0.15573,0 0.7863,0.706 2.09343,1.5723 2.68599,1.78 3.72192,3.3229 3.97089,5.914 0.12834,1.3358 -0.005,1.7447 -1.44165,4.409 -5.06289,9.3916 -10.82835,15.92833 -18.74634,21.25383 -7.6701,5.1588 -16.0233,8.08402 -30.74316,10.76562 -8.80264,1.6037 -11.52967,1.8329 -21.75,1.828 -10.47753,-0.01 -14.75077,-0.3484 -24.39061,-1.9597 -19.03668,-3.182 -37.76342,-9.96442 -54.16558,-19.61765 -2.60021,-1.5303 -3.07846,-1.9531 -4.54054,-4.0143 -0.89881,-1.2671 -1.63849,-2.3834 -1.64374,-2.4806 -0.005,-0.097 1.04388,-0.9352 2.33138,-1.8623 2.79088,-2.0094 3.63771,-2.3191 29.15909,-10.6658 21.49487,-7.0298 26.41681,-8.3468 37.05,-9.9133 10.14357,-1.4944 24.4283,-2.275 36.15,-1.9755 8.79627,0.2248 12.43137,0.5298 19.71117,1.654 6.32631,0.977 7.60698,1.0469 8.91909,0.487 0.86391,-0.3686 0.81378,-0.3996 -2.7,-1.6684 -34.36219,-12.4084 -53.2906,-20.74 -71.6803,-31.551 -3.84099,-2.2581 -7.05,-3.6453 -7.05,-3.0477 0,0.091 0.72437,1.1288 1.60971,2.3051 3.18765,4.2351 3.30118,5.0469 1.01529,7.26 -0.86625,0.8386 -3.05203,2.7102 -4.85729,4.1591 -12.53809,10.0627 -24.67987,14.1207 -40.51771,13.5417 -17.89464,-0.6543 -39.63376,-7.4067 -58.03219,-18.0256 -15.66869,-9.0433 -28.94084,-19.5212 -45.05226,-35.56728 C 97.01008,886.06042 96,884.73151 96,882.09208 c 0,-1.09992 0.14883,-1.39194 1.11549,-2.18874 2.25534,-1.85904 3.06919,-1.95438 11.88942,-1.39278 32.95633,2.09844 46.87214,3.88968 64.44032,8.29464 5.57399,1.39758 15.47721,4.2885 17.93903,5.23668 0.58616,0.22578 2.82074,1.03884 4.96574,1.80684 2.145,0.768 9.28003,3.47841 15.85562,6.02313 10.88508,4.21245 14.69311,5.50854 15.07183,5.12982 0.0748,-0.0748 -2.46574,-2.34153 -5.6457,-5.03715 -4.4688,-3.78816 -11.69337,-10.79049 -31.81432,-30.83568 -14.31791,-14.26401 -26.10672,-25.86042 -26.19734,-25.76979 -0.0906,0.0906 0.12922,1.49346 0.48853,3.11742 0.35932,1.62396 0.66724,3.83769 0.68428,4.91937 0.0554,3.51798 -1.02362,4.28049 -8.91994,6.30351 -7.50699,1.92327 -9.70849,2.20698 -16.97296,2.18733 -7.22339,-0.0195 -10.26894,-0.43371 -17.16542,-2.33436 -14.88518,-4.10223 -37.13105,-16.77972 -50.79019,-28.9443 -8.6841,-7.73394 -14.75191,-15.69066 -28.73391,-37.67889 -8.48549,-13.34436 -8.31265,-13.04088 -10.76333,-18.9 -2.22073,-5.30937 -2.3777,-6.14673 -1.34572,-7.1787 0.44664,-0.44664 1.11147,-0.7713 1.57946,-0.7713 1.11432,0 17.64621,3.40266 22.69085,4.67031 13.87082,3.48555 33.3321,11.81418 48.97826,20.96064 5.99944,3.50718 17.26763,11.04519 22.65,15.15201 6.49993,4.95957 16.13822,11.87862 15.4248,11.07303 -0.34385,-0.38829 -1.3671,-1.98849 -2.27387,-3.55599 -0.90678,-1.5675 -3.30995,-5.68452 -5.3404,-9.14889 -4.73778,-8.08374 -8.60098,-15.17355 -19.94371,-36.60111 -5.0659,-9.57 -9.5046,-17.62932 -9.86377,-17.90958 l -0.65305,-0.50958 -0.18765,2.78187 c -0.3896,5.77596 -3.00674,8.65032 -8.66235,9.51372 -6.79068,1.03668 -20.4805,-2.31 -30.99657,-7.57758 C 45.06603,743.69254 30.89363,727.77874 17.5954,701.37913 13.64632,693.53944 11.20577,687.64633 8.72232,679.95367 5.5375,670.08847 0,648.61336 0,646.12747 c 0,-4.74021 2.69311,-4.6896 11.79141,0.22158 18.49274,9.98217 34.13461,21.32037 47.56372,34.47717 10.9472,10.72521 18.78358,20.40708 26.65544,32.93289 1.94826,3.10011 3.57747,5.33055 4.48286,6.13716 0.78225,0.69693 1.47896,1.21047 1.54823,1.1412 0.20358,-0.20358 -0.42282,-2.64273 -3.85427,-15.00834 -7.75205,-27.93537 -8.74517,-32.38905 -11.53793,-51.74226 -1.30301,-9.02961 -1.78926,-11.70774 -2.12569,-11.70774 -0.39752,0 -1.3118,2.69799 -1.32162,3.9 -0.0142,1.74267 -0.73947,4.80501 -1.4832,6.26286 -0.78659,1.54182 -2.46699,2.96268 -3.79955,3.21267 -3.63735,0.68238 -10.14949,-1.08528 -17.7598,-4.82073 -15.10887,-7.41603 -26.28708,-19.59897 -35.09986,-38.2548 -7.17331,-15.18522 -11.15565,-31.218 -12.36968,-49.8 -0.37978,-5.81304 -0.0969,-33.98991 0.35995,-35.85 0.16209,-0.66 0.62407,-1.70625 1.02661,-2.325 0.57898,-0.88995 0.92112,-1.125 1.63761,-1.125 2.07955,0 3.50169,1.20528 14.39014,12.19578 11.10566,11.20974 15.34633,15.79047 19.93849,21.53742 11.189,14.00271 19.6313,29.7795 26.11979,48.8121 2.02503,5.93997 2.5118,7.92651 3.88496,15.8547 1.10987,6.40809 1.5197,8.1 1.96206,8.1 0.64054,0 0.64717,-2.88438 0.0272,-11.85 -1.51207,-21.86742 -1.516,-28.28367 -0.0343,-56.1015 0.71524,-13.42806 0.83291,-18.41676 0.48116,-20.3985 -0.25977,-1.46358 -0.27256,-1.47813 -0.52649,-0.6 -0.14314,0.495 -0.54454,2.3175 -0.89199,4.05 -0.90842,4.52961 -1.80345,6.04482 -3.90491,6.61068 -3.21561,0.86586 -12.71284,-3.15666 -19.76036,-8.36946 -3.12295,-2.30991 -7.86195,-7.17777 -10.27652,-10.55595 -2.67495,-3.74247 -6.12515,-10.65015 -7.64018,-15.29652 -1.4441,-4.42884 -3.8925,-13.99614 -5.14096,-20.08875 -2.18717,-10.67352 -3.04362,-18.69663 -3.03945,-28.47318 0.005,-12.2712 1.04879,-18.6786 6.89374,-42.32682 1.44775,-5.8575 2.83337,-11.1225 3.07916,-11.7 0.72941,-1.71384 1.80257,-2.51448 3.09026,-2.3055 1.51841,0.24639 2.8857,1.3824 5.19672,4.31766 6.92675,8.7978 13.83566,20.47566 18.95436,32.03784 5.15829,11.65161 10.26192,26.87274 12.24926,36.53244 1.94239,9.44112 2.44576,15.33099 2.72356,31.86756 0.1275,7.59 0.33881,14.12721 0.46957,14.52717 0.21996,0.67278 0.26771,0.62793 0.63861,-0.6 0.22048,-0.72996 1.82339,-8.95467 3.56202,-18.27717 5.8553,-31.39602 7.389,-38.61702 12.01089,-56.55 1.40335,-5.445 2.62196,-10.1025 2.70803,-10.35 0.22126,-0.6363 -0.10599,-0.23535 -2.20375,2.7 -3.78451,5.2956 -5.59833,6.06543 -8.7238,3.70269 -2.04312,-1.54455 -9.44543,-8.63517 -11.38191,-10.90269 -8.06984,-9.44931 -11.94557,-20.94597 -12.99591,-38.55 -1.44777,-24.26496 4.18836,-49.81734 16.54287,-75 2.86586,-5.8416 7.441,-13.34919 9.38515,-15.40059 1.67713,-1.76964 3.20657,-2.24283 4.84154,-1.4979 1.05671,0.48147 1.71055,1.63881 3.10635,5.49849 0.65638,1.815 2.15521,5.91885 3.33074,9.11967 4.63406,12.61794 5.57014,17.19237 6.7591,33.03033 0.85747,11.42223 1.6486,34.09476 1.66967,47.85 0.01,6.23934 -0.0401,6.83772 -0.90951,10.95 -0.50579,2.3925 -0.98729,4.755 -1.06999,5.25 -0.17103,1.02363 -0.38682,1.44267 7.49245,-14.55 3.04846,-6.1875 10.73837,-21.01938 17.0887,-32.95971 10.26359,-19.29837 12.6832,-24.24633 12.12813,-24.80139 -0.0708,-0.0708 -2.22947,1.88199 -4.79705,4.3395 -2.5676,2.45751 -5.08318,4.6827 -5.5902,4.9449 -2.07044,1.07067 -3.62081,0.38739 -6.19766,-2.73141 -6.91081,-8.36418 -11.41456,-18.60348 -12.92003,-29.37372 -0.68232,-4.88136 -0.46251,-14.86065 0.44534,-20.21817 2.4678,-14.56328 8.22919,-30.35985 16.80933,-46.08776 3.43201,-6.29109 8.20099,-14.14105 11.67022,-19.2097 3.25821,-4.76035 9.50584,-12.87245 11.34259,-14.72754 1.38038,-1.39416 1.70173,-1.575 2.79872,-1.575 2.47325,0 2.98423,0.77174 5.22864,7.89686 2.84991,9.04735 3.80441,13.52474 4.87191,22.85314 0.78212,6.83451 0.78359,24.4806 0.003,30.74701 -1.9369,15.54068 -5.57996,27.93374 -12.08698,41.11793 -2.14709,4.35006 -3.71642,7.98654 -3.71642,8.61147 0,0.0729 2.17696,-2.41203 4.8377,-5.52195 2.68188,-3.13467 11.00626,-13.87635 18.68002,-24.10446 21.61877,-28.81499 23.76892,-31.77635 24.94397,-34.35482 0.58256,-1.27835 1.00247,-2.38102 0.93312,-2.45037 -0.16057,-0.16057 -3.40194,2.49387 -5.74481,4.70457 -4.09851,3.86732 -7.49953,3.4707 -10.53982,-1.22912 -1.72394,-2.66493 -4.60047,-8.6523 -5.76224,-11.99385 -2.87158,-8.25939 -3.75305,-18.53459 -2.30131,-26.82641 1.43937,-8.22122 7.12563,-27.67812 10.87166,-37.2 5.11462,-13.00067 8.04438,-17.66735 25.34028,-40.36341 4.52746,-5.94102 5.45966,-6.5581 7.41789,-4.91036 0.77885,0.65536 1.17857,1.57789 2.56719,5.925 3.0181,9.44824 4.2162,15.13973 5.31504,25.24877 0.59685,5.49091 0.50449,20.52146 -0.15947,25.95 -1.71916,14.056 -6.11169,28.20498 -12.33382,39.72897 -0.71895,1.33157 -1.40026,3.02853 -1.51403,3.77103 l -0.20685,1.35 0.8894,-0.9 c 0.48916,-0.495 3.5054,-3.78401 6.70274,-7.30891 3.19733,-3.5249 6.42084,-7.06896 7.16334,-7.8757 0.92149,-1.00121 2.00303,-1.75785 3.40735,-2.38375 1.13154,-0.50432 2.10539,-0.86891 2.16411,-0.81019 0.0587,0.0587 -0.1649,1.01228 -0.49693,2.11901 -0.67319,2.24393 -1.42313,3.30634 -12.43029,17.60954 -7.65761,9.95065 -8.26262,10.80627 -9.08742,12.85186 l -0.64589,1.60186 2.44757,-2.20186 c 1.34617,-1.21102 5.69746,-5.37623 9.66954,-9.25601 7.78589,-7.60498 9.80759,-9.34642 14.39401,-12.39864 3.47038,-2.30951 10.80021,-6.10339 15.92795,-8.24422 5.25477,-2.19387 16.0789,-6.18119 19.2,-7.07276 8.5742,-2.44932 18.39244,-3.47617 33.26286,-3.47884 6.81762,-10e-4 8.08704,0.0747 10.425,0.62361 1.46418,0.34374 2.66214,0.73452 2.66214,0.86839 0,0.5384 -1.30362,4.4274 -1.83279,5.46766 -1.28418,2.5245 -10.08768,12.95265 -16.67098,19.74756 -13.84407,14.28905 -32.45625,28.00672 -46.63377,34.37032 -10.07776,4.52327 -19.81419,6.72107 -29.77526,6.72107 -5.00087,0 -8.10548,-0.41726 -13.6875,-1.83962 -3.99211,-1.01723 -5.86377,-2.03894 -6.81647,-3.72099 -1.21989,-2.15379 -0.84688,-4.20101 1.55589,-8.53939 0.86814,-1.5675 2.49515,-4.59113 3.61557,-6.71917 1.92271,-3.65185 1.9882,-3.84024 1.16607,-3.35411 -0.47909,0.28328 -1.29457,0.87691 -1.81219,1.31917 -1.59515,1.36291 -45.63556,62.9189 -46.17527,64.53992 -1.01094,3.03633 -0.97525,3.02466 3.22572,-1.0533 10.42107,-10.11594 17.76939,-15.72114 26.22988,-20.00784 6.2096,-3.14622 13.01179,-5.41329 23.5108,-7.83579 13.46822,-3.10761 25.09121,-4.58292 37.27479,-4.73127 l 4.42478,-0.0539 3.00022,1.29618 c 1.65011,0.71289 3.00021,1.46046 3.00021,1.66122 0,0.70182 -1.89993,5.09928 -2.71712,6.28887 -3.37011,4.90596 -21.94874,24.21669 -29.08288,30.2289 -10.08441,8.49852 -19.98999,15.16734 -29.85,20.09625 -14.20914,7.10298 -26.46474,10.12383 -41.07543,10.12461 -7.20797,0 -9.44671,-0.56448 -11.09698,-2.79984 -0.56717,-0.76824 -0.62658,-1.25064 -0.61714,-5.01045 0.006,-2.28819 -0.0107,-4.13316 -0.0365,-4.09992 -0.13936,0.17946 -8.34413,13.64682 -9.63225,15.81045 -4.67275,7.84869 -9.35363,17.50383 -18.71796,38.60919 -1.62822,3.66969 -3.09069,7.2501 -3.24993,7.95648 -0.40653,1.80333 -0.60363,3.83697 -0.37026,3.82023 0.10805,-0.008 2.00975,-2.44155 4.226,-5.40843 5.50177,-7.36521 8.23383,-10.55484 12.95739,-15.12747 16.83869,-16.30068 36.52026,-25.15824 59.36306,-26.71593 1.5675,-0.10689 4.1325,-0.47349 5.7,-0.81468 5.12585,-1.11567 9.25081,-0.74679 11.11429,0.99396 0.77134,0.72054 0.88571,1.03845 0.88571,2.46192 0,1.45044 -0.18973,1.95225 -1.68421,4.45464 -3.05839,5.12106 -11.36242,17.43594 -15.1988,22.53984 -15.35358,20.4264 -30.73622,34.05699 -49.06022,43.4724 -6.28702,3.23046 -9.99783,4.24941 -23.90102,6.56292 -6.5433,1.08882 -7.60193,1.19571 -8.85795,0.89439 -2.39045,-0.57345 -3.58864,-2.29812 -3.60843,-5.19399 -0.006,-0.85551 -0.18235,-1.86483 -0.39223,-2.24292 -0.36564,-0.65874 -0.40205,-0.66486 -0.87077,-0.14694 -0.52623,0.58146 -3.75719,10.98828 -6.36029,20.48628 -3.89437,14.20944 -6.09499,26.49606 -6.93111,38.69811 -0.12723,1.85682 -0.0932,2.74545 0.0978,2.55 0.16119,-0.165 2.47842,-3.66849 5.14939,-7.78554 8.03033,-12.378 11.44892,-16.94007 16.5523,-22.08891 11.49166,-11.59395 27.63698,-20.18322 47.39388,-25.21341 4.11321,-1.04724 5.43099,-1.25793 8.02228,-1.28259 3.03086,-0.0288 3.11667,-0.0108 3.81472,0.80022 0.94902,1.10274 1.43633,3.02268 1.24394,4.90098 -0.0909,0.88791 -0.97398,3.53364 -2.10269,6.3 -11.21307,27.48231 -23.08648,46.86249 -37.75661,61.62759 -11.80622,11.88267 -21.91606,18.19635 -34.40063,21.48348 -8.43599,2.22117 -10.62127,1.18815 -11.16319,-5.27712 -0.13207,-1.5756 -0.33442,-3.30126 -0.44966,-3.83484 -0.57827,-2.67726 -0.9611,0.19032 -2.2522,16.87014 -1.10032,14.21514 -1.39115,24.97194 -0.91657,33.9 0.55565,10.45296 2.09807,30.18438 2.46116,31.4844 0.61303,2.19492 0.91009,0.39966 1.00456,-6.07092 0.17334,-11.87307 2.21792,-20.5014 7.40821,-31.26348 8.07734,-16.7484 19.02684,-28.56639 35.64792,-38.47542 4.8611,-2.89806 16.79485,-8.83959 19.61216,-9.76446 1.1623,-0.38154 2.7658,-0.66012 3.79984,-0.66012 1.55241,0 1.91851,0.11568 2.7687,0.87495 1.61808,1.44507 1.45448,3.19374 -1.51798,16.22505 -2.75975,12.09879 -5.22794,22.17246 -6.8359,27.9 -8.64143,30.78072 -23.29486,51.00819 -46.61639,64.34889 -2.2275,1.27422 -4.19877,2.43693 -4.38059,2.58381 -0.18183,0.14688 -1.56887,0.17916 -3.0823,0.0717 -2.60376,-0.1848 -2.79163,-0.1578 -3.49441,0.50241 -0.97525,0.91623 -0.97938,2.50137 -0.0146,5.60268 0.40046,1.28727 1.75694,6.39048 3.01442,11.34048 1.25748,4.95 3.89482,14.8725 5.86078,22.05 6.52484,23.82156 6.77994,24.67992 7.5108,25.27173 0.369,0.2988 0.723,0.49119 0.78667,0.4275 0.0637,-0.0637 0.38072,-4.48827 0.70456,-9.8325 1.19851,-19.77858 1.70963,-24.4758 3.32552,-30.56205 3.05206,-11.49549 8.21754,-19.87968 18.84253,-30.58368 6.96317,-7.0149 21.99112,-20.09643 24.49635,-21.32355 1.61176,-0.78948 3.12933,-0.77241 4.00677,0.045 1.56016,1.45353 1.60045,1.80978 1.89485,16.75752 0.55849,28.35702 -0.17017,41.16849 -3.11119,54.7017 -3.51943,16.19475 -10.05484,29.895 -19.85601,41.62434 -6.37447,7.62852 -9.88049,9.87396 -15.41717,9.87396 -1.03783,0 -1.88697,0.0648 -1.88697,0.14397 0,0.3231 12.97618,25.51335 15.14784,29.40603 5.07133,9.09033 14.78631,23.51925 17.33215,25.74213 0.94778,0.82755 1.78523,1.44264 1.861,1.36689 0.0758,-0.0758 -0.73011,-4.59522 -1.79084,-10.04322 -2.50298,-12.85545 -2.95923,-17.14881 -2.75404,-25.9158 0.0924,-3.94914 0.3619,-8.05707 0.64943,-9.9 2.86118,-18.33894 11.48887,-34.94487 25.90659,-49.86306 3.22397,-3.33588 4.76468,-4.19952 6.22941,-3.49188 1.49826,0.72384 1.1176,-0.35286 8.41598,23.80494 4.59016,15.19353 6.79709,26.33634 7.90256,39.9 0.50817,6.23523 0.71183,24.52752 0.34402,30.9 -0.61823,10.71108 -2.62483,18.51285 -7.02155,27.3 -4.00433,8.00295 -6.05063,10.13055 -10.19161,10.59648 l -1.80875,0.20352 9.84094,10.35 c 12.14359,12.77178 25.49194,26.1477 29.08686,29.14695 3.11533,2.59914 12.33145,9.86496 13.40577,10.56891 0.39948,0.26172 1.50878,0.74511 2.46511,1.07412 1.52968,0.52629 1.71635,0.53976 1.55221,0.11202 -0.10261,-0.26742 -2.22691,-3.9435 -4.72066,-8.16909 -7.64318,-12.95118 -9.96626,-17.72625 -12.85972,-26.43291 -5.36451,-16.14225 -6.21482,-32.18085 -2.53684,-47.85 0.81717,-3.48135 5.44752,-18.28791 6.61205,-21.14346 2.16292,-5.30376 3.61797,-7.20654 5.51079,-7.20654 0.67667,0 1.54289,0.27351 2.15193,0.67947 2.50447,1.66938 16.09116,21.23079 22.44876,32.32053 2.9913,5.21781 9.44549,18.31749 12.12039,24.6 7.86634,18.47562 10.22706,28.21938 10.21206,42.15 -0.009,8.67258 -1.10345,16.65162 -3.24697,23.67912 -1.3806,4.52628 -3.06567,5.97087 -6.96477,5.97087 -1.21006,0 -2.16365,0.0365 -2.1191,0.081 0.3446,0.34461 24.1976,12.96781 30.51899,16.15091 9.18483,4.6249 13.13697,6.334 23.27901,10.0667 7.23267,2.6619 9.41757,3.1706 10.54434,2.4551 0.59406,-0.3772 -1.52499,-3.1371 -3.32778,-4.3341 -4.98582,-3.3103 -11.8743,-9.6081 -15.76935,-14.4169 -4.45878,-5.5049 -8.51529,-12.60146 -10.93261,-19.12574 -2.17936,-5.88207 -3.65103,-13.2147 -4.39073,-21.87699 -0.38964,-4.56297 -0.98743,-29.19318 -0.73903,-30.45 0.37042,-1.87428 2.00208,-6.45945 2.63683,-7.40985 1.29958,-1.94586 3.42137,-2.41641 5.66483,-1.25628 0.45993,0.23784 3.16459,2.29245 6.01036,4.56582 29.46969,23.54196 46.55892,45.47751 55.31154,70.99734 1.85118,5.3973 2.4348,7.8536 2.81658,11.8535 0.36732,3.849 0.13134,16.1741 -0.33324,17.4038 -0.16572,0.4386 -0.87405,1.0663 -1.69281,1.5 -1.74297,0.9232 -3.07794,2.0237 -3.07794,2.5374 0,0.4923 0.95232,0.7489 2.79855,0.7542 0.79668,0 7.88418,1.2105 15.75,2.6851 22.2582,4.1726 33.36921,6.0877 49.63677,8.5552 5.07642,0.77 8.15475,0.9515 8.83287,0.5207 0.22524,-0.1431 -1.52169,-0.9742 -4.5,-2.1409 -14.547,-5.6985 -24.81762,-12.107 -34.37097,-21.4462 -7.50384,-7.3357 -12.91365,-14.8138 -17.84079,-24.6617 -3.68457,-7.36444 -5.55714,-12.55435 -7.23717,-20.05813 -0.95442,-4.26285 -3.46926,-18.71697 -3.46926,-19.93968 0,-2.22714 1.77987,-3.79206 4.02507,-3.53901 2.15649,0.24309 29.42742,12.14973 40.36299,17.62272 12.26751,6.13959 21.67233,12.44436 31.36194,21.02424 5.89341,5.21846 13.82334,13.64826 17.90322,19.03176 6.08499,8.0293 10.25217,17.0424 11.64426,25.1853 1.01286,5.9246 0.71697,8.1177 -1.29438,9.5933 -0.7959,0.5839 -1.26627,0.6232 -7.80882,0.6521 -5.69931,0.025 -7.12353,0.116 -7.8531,0.501 l -0.89118,0.4702 0.78945,0.3031 c 0.43419,0.1667 3.53919,0.8639 6.9,1.5494 34.41417,7.0191 63.11571,16.7137 91.44429,30.88743 9.29511,4.6507 12.36081,5.5095 17.2437,4.8303 3.59199,-0.4996 7.85556,-2.0669 15.21939,-5.5946 28.18968,-13.50443 51.999,-21.76603 84.22077,-29.22373 4.35465,-1.0078 8.33715,-2.0511 8.85,-2.3184 l 0.9324,-0.4859 -0.9,-0.282 c -0.495,-0.1552 -3.13104,-0.3759 -5.85789,-0.4906 -5.64834,-0.2375 -7.38219,-0.7641 -8.28885,-2.5173 -1.38225,-2.673 1.3443,-12.7878 5.85159,-21.7082 9.97941,-19.75 31.27611,-38.77692 59.95425,-53.56428 11.7578,-6.0627 32.0009,-14.76525 35.237,-15.14853 3.7519,-0.44436 4.7837,1.71039 4.1538,8.67486 -1.1188,12.36933 -3.6977,21.84753 -8.8619,32.56955 -4.8884,10.1493 -10.6879,18.4099 -18.2827,26.0409 -8.93627,8.9789 -18.64865,15.2062 -31.01261,19.8845 -2.61588,0.9898 -7.52988,3.5621 -7.539,3.9465 -0.008,0.323 6.17466,-0.2947 14.99631,-1.4983 10.93233,-1.4916 23.272,-3.5492 44.0496,-7.3449 14.8349,-2.7101 16.5504,-3.1304 16.5504,-4.0547 0,-0.11 -0.6986,-0.5158 -1.5524,-0.9017 -1.9883,-0.8985 -3.7928,-2.5292 -4.4879,-4.0553 -0.8548,-1.8769 -0.7392,-5.3038 0.3245,-9.6156 0.4863,-1.9714 1.0925,-4.7994 1.3471,-6.2844 3.1733,-18.5046 11.9737,-35.64087 27.909,-54.34479 4.4279,-5.1972 18.3546,-19.1124 22.8097,-22.79091 5.8685,-4.84542 11.3163,-9.00696 12.8782,-9.83739 2.7284,-1.45074 5.2436,-0.90567 6.6144,1.4334 2.1498,3.66831 3.7705,18.5991 3.165,29.15742 -0.7957,13.87374 -3.6548,24.98175 -9.2785,36.0477 -5.8047,11.42207 -13.3234,20.03907 -23.4291,26.85137 -3.7346,2.5176 -4.2949,2.9949 -5.4158,4.6139 l -0.8521,1.2307 8.609,-2.4848 c 10.296,-2.9718 13.4514,-4.0532 19.3991,-6.6487 6.6823,-2.9161 34.8278,-17.1701 36.1866,-18.3263 1.1966,-1.0183 1.4691,-1.549 0.7982,-1.5549 -0.5812,0 -6.0653,-4.91754 -6.7792,-6.07257 -0.3497,-0.56589 -0.9643,-2.43408 -1.3658,-4.15152 -3.5109,-15.0186 -2.6931,-30.50955 2.5245,-47.82264 5.6764,-18.83556 15.6588,-37.88292 32.5534,-62.11533 4.0065,-5.74665 4.6699,-6.45978 8.5421,-9.18273 l 1.95,-1.37124 0.992,1.31952 c 3.5143,4.67496 4.5969,6.74487 6.9679,13.32345 1.521,4.2204 3.4328,12.04056 4.2112,17.22633 0.8019,5.34219 1.1245,18.19701 0.6066,24.16809 -1.7319,19.96719 -7.0653,35.36934 -16.6568,48.10314 -1.379,1.83084 -3.507,4.40877 -4.7288,5.72877 -2.2571,2.43858 -3.7443,4.35 -3.3844,4.35 0.4112,0 8.48,-4.63614 10.5369,-6.05433 1.1796,-0.81327 4.9596,-4.06299 8.4,-7.2216 13.7578,-12.63084 37.1367,-34.95252 38.073,-36.35136 0.5722,-0.85479 1.9346,-3.91581 1.9307,-4.33773 0,-0.10173 -0.7883,-0.1926 -1.7496,-0.2019 -2.0403,-0.0198 -3.9855,-0.98802 -5.2097,-2.5932 -1.9859,-2.60394 -5.6845,-10.46769 -7.8472,-16.68432 -3.7662,-10.82595 -5.2021,-20.67759 -4.901,-33.62643 0.2089,-8.9826 0.7721,-13.47084 3.211,-25.59177 2.0855,-10.36437 8.9941,-40.41945 9.8468,-42.83736 1.7035,-4.83036 4.311,-9.77688 5.5984,-10.62045 1.6943,-1.11012 3.6305,-0.0826 7.1687,3.80421 14.3485,15.76218 21.90662,32.1429 24.53122,53.16624 0.566,4.53396 0.4789,17.36847 -0.1533,22.59189 -0.6859,5.66736 -1.5264,8.76813 -4.4379,16.37199 -1.3344,3.48486 -2.5445,6.67362 -2.6891,7.08612 -0.2863,0.81639 0.4911,0.0276 4.8508,-4.92177 2.8129,-3.19332 8.1572,-12.02001 24.44768,-40.37823 6.1141,-10.64328 6.8328,-12.08562 7.1757,-14.40039 l 0.1999,-1.34961 -2.727,-0.0326 c -2.5126,-0.0301 -2.9092,-0.12177 -5.0453,-1.1664 -5.149,-2.51799 -13.33238,-12.58656 -18.97528,-23.34666 -5.7997,-11.05899 -9.2687,-23.08656 -10.6374,-36.88179 -1.3653,-13.76073 -2.94622,-54.19713 -2.26002,-57.80493 0.5503,-2.89287 1.54012,-3.76698 4.02232,-3.55215 2.0769,0.17973 4.334,1.31388 9.482,4.76451 5.7822,3.87567 10.18178,7.4511 14.54998,11.82405 9.4289,9.43941 15.8675,19.84221 19.9579,32.24601 2.821,8.55462 3.5024,13.97973 4.0019,31.863 0.2014,7.21215 0.4384,13.18518 0.5266,13.27344 0.1797,0.17967 5.3404,-13.46466 7.3703,-19.48644 1.8241,-5.41125 4.1733,-14.0883 6.4976,-24 5.6151,-23.94474 5.8866,-25.37553 5.4605,-28.78551 l -0.2151,-1.72119 -1.3271,2.71479 c -2.424,4.95873 -4.2376,5.47524 -9.8358,2.80107 -9.0898,-4.34214 -16.8513,-11.11095 -27.1241,-23.65503 -10.1726,-12.42171 -16.76928,-26.3706 -21.93448,-46.38135 -3.4141,-13.2267 -6.9282,-31.4607 -6.9282,-35.94888 0,-1.81704 0.6193,-3.40257 1.5166,-3.88278 1.0092,-0.54009 3.7597,-0.20352 6.1334,0.75054 10.22688,4.11042 19.79308,9.41592 28.04998,15.55677 5.0938,3.78837 13.2545,11.85306 16.6895,16.49301 9.3517,12.63264 14.9889,25.82823 15.9649,37.37133 0.2192,2.59263 0.3767,3.19983 1.1006,4.24449 0.4647,0.67044 0.9375,1.27629 1.0507,1.34628 0.1133,0.07 0.5633,-0.57912 1.0001,-1.44246 l 0.7942,-1.56969 0,-32.24571 c 0,-17.73513 -0.088,-32.55756 -0.1897,-32.93877 l -0.1856,-0.69306 -0.8883,0.84306 c -0.4885,0.46371 -1.2011,1.45602 -1.5834,2.20512 -0.9406,1.84281 -3.1081,3.79686 -4.5017,4.05828 -2.0478,0.38418 -4.4522,-0.054 -7.5366,-1.3734 -1.6283,-0.69654 -4.3106,-1.73217 -5.9606,-2.30139 -6.9446,-2.3958 -15.4354,-7.2747 -21.45,-12.32532 -3.7106,-3.11589 -9.3742,-8.96865 -12.6962,-13.1202 -3.52448,-4.40463 -9.37758,-13.22478 -12.94028,-19.5 -3.3799,-5.95344 -9.44772,-18.0192 -16.30082,-32.41404 -4.6272,-9.71952 -4.8627,-10.30221 -4.8627,-12.03456 0,-3.11376 1.6729,-4.25706 5.7,-3.89544 2.48,0.22269 11.64792,2.48067 16.68222,4.10865 27.84618,9.00492 47.35878,26.12748 58.77718,51.57783 2.1698,4.83621 2.6041,5.36754 2.9817,3.64824 0.2517,-1.14624 -3.0637,-21.03003 -4.7589,-28.54068 -1.701,-7.53618 -9.0914,-34.56417 -10.3654,-37.90761 -0.5275,-1.38456 -1.0814,-0.54036 -2.4063,3.66783 -0.6563,2.08437 -1.406,4.09158 -1.6659,4.46046 -0.87,1.23465 -3.3084,1.67763 -8.2299,1.49508 -3.6609,-0.13578 -5.0419,-0.33324 -8.5647,-1.2246 -21.73218,-5.49897 -39.5847,-17.98395 -57.327,-40.09116 -5.3824,-6.70659 -14.9334,-19.7712 -21.1953,-28.99251 -2.2266,-3.27885 -4.6556,-8.39955 -4.2003,-8.85486 0.1348,-0.13479 1.6826,-0.78678 3.4395,-1.44885 3.7406,-1.40958 5.2378,-1.49913 12.4327,-0.74355 23.0449,2.42004 42.61952,10.37358 58.7042,23.85255 3.1398,2.63115 6.2763,6.12591 11.1459,12.41886 3.0885,3.99126 8.5224,10.00182 8.1263,8.98863 -0.1226,-0.31365 -1.2352,-3.39222 -2.4722,-6.84126 -1.2372,-3.44901 -2.8664,-7.70151 -3.6205,-9.45 -2.0888,-4.84281 -24.33738,-49.02627 -24.90248,-49.45401 -0.2725,-0.20625 -0.6047,-0.375 -0.7381,-0.375 -0.3604,0 -0.2868,1.61745 0.2114,4.65 1.0677,6.49809 0.058,8.63346 -4.4519,9.41889 -2.413,0.42021 -12.21682,0.42963 -16.03902,0.0153 -10.2106,-1.10655 -20.7917,-4.39278 -32.3132,-10.03572 -18.4627,-9.04257 -31.2545,-19.58247 -53.5204,-44.09856 -5.8595,-6.45171 -7.2296,-8.49978 -7.2296,-10.80747 0,-1.63569 0.7431,-2.5665 2.764,-3.46194 1.3888,-0.61539 2.1667,-0.7176 6.2557,-0.82191 15.4901,-0.39519 34.1159,2.27844 47.3837,6.80163 14.2241,4.84926 25.3866,11.4288 36.8597,21.7263 1.8772,1.68486 3.67,3.16176 3.9839,3.28203 0.5189,0.19872 0.5051,0.10314 -0.1514,-1.05 -0.3973,-0.69777 -1.6999,-3.09114 -2.8947,-5.31864 -4.2185,-7.8645 -7.2151,-12.27111 -21.2187,-31.2024 -12.8775,-17.409 -16.6835,-22.30782 -18.0252,-23.20087 -0.7112,-0.47335 -1.3648,-0.7889 -1.4525,-0.70123 -0.088,0.0877 1.2705,3.09171 3.0181,6.67565 2.6839,5.50417 3.1774,6.73888 3.1774,7.94954 0,2.52958 -1.8558,3.92874 -7.3057,5.50806 -7.9656,2.30834 -17.012,2.56755 -25.9943,0.74481 -15.0491,-3.05383 -34.8207,-13.67338 -51.9074,-27.87999 -4.3302,-3.60038 -16.337,-15.48934 -20.2926,-20.09348 -5.144,-5.98746 -9.713,-11.84967 -9.9749,-12.79818 -0.3374,-1.22197 0.1161,-3.37641 0.9818,-4.66466 0.6157,-0.91614 0.8138,-1.00067 2.7533,-1.1749 3.4744,-0.31211 16.8522,-0.28274 21.1549,0.0464 16.3125,1.24801 28.5626,4.6752 43.5851,12.1938 9.5515,4.78042 17.8594,10.45873 27.1401,18.54963 1.8402,1.60436 3.0103,2.13332 2.6517,1.19881 -0.095,-0.24699 -0.83,-1.42823 -1.6337,-2.625 -4.4552,-6.63358 -8.7687,-13.70758 -10.2883,-16.87247 -0.9498,-1.97809 -1.6788,-3.64459 -1.62,-3.70334 0.059,-0.0587 1.4392,0.77173 3.0677,1.8455 3.0881,2.03624 4.7566,3.73915 14.0147,14.30437 1.9519,2.2275 3.6764,4.185 3.8323,4.35 0.3428,0.36289 -0.5581,-1.66021 -3.1394,-7.05 -2.6464,-5.52578 -3.8294,-8.58082 -5.603,-14.46984 -2.8156,-9.34839 -4.5374,-16.82125 -5.2646,-22.8486 -1.2067,-10.00112 -1.3637,-27.24792 -0.317,-34.83156 1.3829,-10.02038 3.7987,-17.80247 7.149,-23.02927 l 1.1084,-1.72927 2.0548,1.03479 c 1.1302,0.56914 2.5077,1.41481 3.0612,1.87927 1.3897,1.16626 8.311,10.50587 12.7423,17.19448 11.8888,17.94496 18.9023,34.12422 22.303,51.45 3.7644,19.17909 2.6182,33.52319 -3.7159,46.50053 -1.864,3.81898 -3.7918,6.2209 -5.4257,6.76012 -1.4401,0.47528 -3.341,0.15715 -6.3615,-1.06464 -1.3716,-0.5548 -2.4516,-0.90893 -2.4,-0.78695 0.052,0.12197 1.1533,2.05146 2.4481,4.28775 2.2863,3.9486 6.9797,10.57254 20.6917,29.20319 13.17412,17.89959 15.06672,20.33994 16.82442,21.69261 0.9238,0.71094 1.6796,1.16604 1.6796,1.01133 0,-0.15471 -0.9987,-3.03138 -2.2193,-6.39261 -4.0327,-11.10468 -5.5049,-16.06122 -7.69582,-25.90977 -2.7301,-12.27182 -3.021,-22.98325 -1.1743,-43.24267 1.3902,-15.25217 1.5559,-16.12294 4.55872,-23.95889 2.2894,-5.97428 2.9699,-7.05 4.46,-7.05 1.1014,0 2.2561,1.02356 5.0424,4.46977 23.49288,29.05742 37.41588,60.61423 38.33188,86.88023 0.4805,13.77879 -2.5506,24.63069 -10.0823,36.0966 -4.0589,6.17919 -6.0949,7.89888 -8.5491,7.22124 -1.2218,-0.33735 -4.0456,-2.38896 -5.7222,-4.15746 -1.0972,-1.15734 -3.75,-3.21603 -3.75,-2.91021 0,0.0709 3.0811,6.25368 6.8469,13.7394 3.7658,7.48575 11.0762,22.34733 16.2453,33.02574 5.1692,10.67841 9.7066,19.70478 10.0832,20.0586 l 0.6848,0.64329 0.1911,-1.01871 c 0.1051,-0.56031 0.046,-3.64668 -0.1304,-6.8586 -0.1769,-3.21195 -0.5956,-10.83489 -0.9306,-16.93989 -0.8201,-14.95065 -1.0785,-29.51331 -0.6094,-34.35 1.0512,-10.83894 3.7921,-21.2835 10.109,-38.52099 1.3849,-3.77904 2.7779,-7.29141 3.0954,-7.80528 0.621,-1.0047 4.2848,-4.37373 4.7564,-4.37373 0.1571,0 1.1588,0.92556 2.2259,2.05683 2.3252,2.46477 5.8003,8.47275 10.8703,18.79317 9.2659,18.86139 13.262,33.02952 15.3154,54.3 0.6032,6.24732 0.6079,17.38254 0.01,22.40847 -1.1024,9.26037 -3.6913,17.47158 -7.8517,24.90336 -3.1318,5.59437 -7.2784,10.4445 -13.9567,16.32453 -3.0415,2.67795 -3.262,2.81364 -4.5714,2.81364 -0.7567,0 -2.6401,-0.405 -4.1854,-0.9 -1.5453,-0.495 -2.944,-0.9 -3.1082,-0.9 -0.1642,0 0.6991,4.08375 1.9184,9.075 4.9149,20.11902 10.3199,45.8592 12.3855,58.98324 0.5027,3.19452 1.0311,6.01737 1.1742,6.27297 0.6657,1.18962 0.9529,-1.05609 1.2275,-9.59832 0.533,-16.58343 2.2914,-27.7458 6.6528,-42.23289 4.2351,-14.067 13.0356,-33.22884 21.3563,-46.5 2.1466,-3.42384 7.0469,-10.38159 8.3848,-11.90538 2.2052,-2.51166 4.6911,-2.63037 6.0375,-0.28827 0.7283,1.26696 4.5486,13.75902 6.1646,20.15754 2.5867,10.24224 4.4095,28.72152 4.1249,41.81985 -0.5712,26.30034 -7.5636,47.30112 -20.3326,61.06626 -6.5277,7.03683 -14.4613,12.5775 -20.7899,14.51904 -2.5674,0.78768 -3.9683,0.79641 -5.2211,0.0326 -1.4293,-0.87141 -1.966,-1.96386 -3.2138,-6.54096 -1.5591,-5.71866 -1.5061,-5.62011 -1.9533,-3.63798 -0.3105,1.37691 -0.2644,5.38203 0.2607,22.65 1.4952,49.16223 1.4998,50.64441 0.1902,61.32732 -0.8592,7.00914 -0.8939,7.96272 -0.3263,8.98776 l 0.4085,0.73779 0.329,-1.18779 c 0.1809,-0.65325 0.5384,-2.80776 0.7944,-4.78776 2.6757,-20.69148 10.9777,-41.84376 24.3435,-62.02386 3.6592,-5.52477 7.8446,-11.16204 11.416,-15.37614 2.773,-3.27213 25.9035,-26.39445 27.7988,-27.78909 2.209,-1.62543 4.7745,-0.95655 5.6333,1.46877 0.6565,1.85388 0.5393,32.06952 -0.148,38.17032 -0.9595,8.517 -2.151,14.55546 -5.3275,27 -5.447,21.33966 -12.1857,34.77654 -23.0754,46.01199 -8.2183,8.47926 -17.3376,14.09673 -29.8524,18.38913 -6.8349,2.34426 -10.5494,1.44501 -12.9966,-3.14646 -1.1639,-2.18355 -1.7024,-2.47806 -2.1277,-1.16337 -0.1705,0.52728 -2.1454,10.00371 -4.3885,21.05871 -5.6462,27.82638 -6.7086,32.62263 -8.9381,40.35 -1.0711,3.7125 -1.9092,6.78861 -1.8625,6.8358 0.047,0.0472 2.7286,-3.47391 5.9596,-7.82463 9.7821,-13.17228 14.6216,-19.02555 22.0994,-26.72874 14.8658,-15.31389 33.3182,-28.97457 52.988,-39.22809 3.8371,-2.00025 4.7698,-2.36859 6.0721,-2.39793 0.9148,-0.0207 1.741,0.13323 2.0379,0.37947 0.7322,0.6072 1.3064,2.17266 1.3064,3.56148 0,2.44533 -7.0475,29.44275 -10.2395,39.22497 -5.9156,18.12918 -14.9053,32.98881 -30.2758,50.04468 -10.1993,11.31759 -22.5722,18.7557 -36.5847,21.99321 -5.6089,1.29591 -8.9718,1.66854 -15.156,1.67931 -5.8616,0.0102 -6.0419,-0.008 -7.4973,-0.75597 -2.0413,-1.04907 -3.0213,-2.69526 -3.5176,-5.90865 l -0.3822,-2.47506 -2.8484,5.31225 c -5.8017,10.82001 -9.3783,16.84545 -28.6121,48.20265 -4.23878,6.91059 -7.65708,12.61455 -7.59618,12.67545 0.1683,0.1683 12.40968,-8.28078 19.09798,-13.18164 21.3108,-15.61524 42.7728,-26.75043 63.1304,-32.75403 7.784,-2.29557 26.4025,-6.75453 28.2036,-6.75453 1.4216,0 1.7179,0.10632 2.2769,0.81693 0.4983,0.63354 0.6001,1.05447 0.4531,1.875 -0.4325,2.41494 -10.5601,23.00898 -13.577,27.60807 -6.7846,10.34274 -29.1365,34.4037 -42.0752,45.29229 -9.1574,7.70646 -21.3258,13.40067 -36.8183,17.22927 -8.0591,1.99158 -12.0802,2.61324 -18.08428,2.79576 -7.7804,0.23655 -13.149,-0.78222 -18.63102,-3.5355 -2.6054,-1.30851 -3.2553,-1.98909 -5.4438,-5.70054 -0.8649,-1.46685 -1.653,-2.67018 -1.7513,-2.67411 -0.4728,-0.0189 -9.6936,8.57346 -41.0713,38.27244 -12.2163,11.56272 -17.3305,16.82736 -15.7396,16.20264 0.3243,-0.12735 5.1121,-1.77528 10.6396,-3.66204 5.5275,-1.88679 12.5475,-4.32573 15.6,-5.41986 11.6715,-4.18353 17.9936,-6.12135 23.7,-7.26441 10.1002,-2.0232 29.75912,-4.51431 65.25,-8.2683 4.7985,-0.50754 7.0054,-0.22092 9.9788,1.296 1.4229,0.72594 1.7511,1.49088 1.4494,3.37806 -0.3049,1.90632 -1.2372,3.44778 -4.3298,7.1583 -3.9345,4.72077 -15.2541,16.0005 -19.9896,19.91921 -12.7695,10.5671 -26.10648,18.9543 -41.7427,26.2509 -22.466,10.4837 -38.9533,13.8348 -56.8042,11.5457 -12.5679,-1.6116 -22.0219,-5.7956 -29.6099,-13.1041 -4.0914,-3.9407 -4.3124,-4.327 -4.6046,-8.0453 -0.1299,-1.6529 -0.2997,-3.0687 -0.3774,-3.1464 -0.078,-0.078 -4.1752,1.6956 -9.1056,3.9406 -10.6502,4.8494 -16.826,7.5058 -42.2644,18.1795 -14.5481,6.1043 -19.3764,8.2565 -19.928,8.883 l -0.728,0.8269 0.878,0.1124 c 0.4829,0.062 7.223,-0.059 14.978,-0.2687 18.8502,-0.5095 25.0066,-0.1373 39.9498,2.4152 14.8749,2.541 42.0893,8.846 49.8779,11.5557 3.7428,1.3022 16.8775,6.5855 18.6614,7.5063 2.8083,1.4497 3.4003,3.1661 1.7431,5.0536 -1.8504,2.1074 -11.1354,7.81583 -18.1322,11.14753 -11.9523,5.6915 -23.7319,9.14312 -41.4,12.13102 -12.5734,2.1263 -17.2025,2.5294 -29.1,2.5343 -11.2892,0 -13.8659,-0.2116 -21.75,-1.8245 -13.8104,-2.8254 -28.2234,-10.69102 -35.9518,-19.61975 -4.117,-4.7565 -9.9482,-13.816 -9.9482,-15.4558 0,-0.4591 0.4815,-2.2438 1.07,-3.966 0.5885,-1.7223 1.0142,-3.1871 0.9461,-3.2552 -0.1693,-0.1694 -16.3472,2.2463 -39.2161,5.8557 -26.38552,4.1644 -28.00534,4.4027 -38.87416,5.7192 -5.29329,0.6412 -10.08579,1.3553 -10.65,1.5869 l -1.02582,0.4212 1.05,0.3453 c 0.5775,0.1899 3.0075,0.4873 5.4,0.6608 21.62817,1.5684 40.31468,6.3714 57.34338,14.73903 13.0929,6.4336 21.2675,11.97582 42.8566,29.05632 4.7025,3.7204 9.7369,7.6879 11.1875,8.8166 2.9121,2.2659 4.1125,4.0513 4.1125,6.1168 0,2.3187 -2.6437,3.798 -7.35,4.1127 -1.65,0.1103 -8.0625,0.5884 -14.25,1.0625 -27.8547,2.1341 -38.33,1.9904 -55.1154,-0.7558 -24.69184,-4.0398 -42.55861,-12.3355 -56.51392,-26.24 -6.51084,-6.4871 -9.25602,-10.9722 -14.51415,-23.71332 -1.25973,-3.0525 -2.49264,-5.86023 -2.73978,-6.23933 -0.60492,-0.9281 -2.18634,-1.8582 -3.16155,-1.8596 -0.83616,0 -12.28539,2.8871 -17.65518,4.4538 -7.87236,2.29683 -15.53007,5.24203 -30,11.53813 -16.48926,7.17482 -20.21793,8.91952 -22.11474,10.34822 -1.02867,0.7749 -1.87368,1.4902 -1.87779,1.5897 -0.004,0.099 0.90045,0.9439 2.01012,1.8765 2.08668,1.7538 3.83766,2.6814 50.93241,26.9817 12.73173,6.5694 16.79655,8.8027 17.79852,9.7789 4.07865,3.9738 4.68669,12.3801 1.04913,14.5046 -1.23258,0.7199 -4.42563,0.9601 -5.81739,0.4376 z M 788.0552,962.04975 c 0.9332,-0.3253 1.297,-0.8769 0.5698,-0.864 -0.3725,0.01 -2.0396,1.1739 -1.6948,1.1867 0.099,0 0.6054,-0.1415 1.125,-0.3227 z m 10.9627,-2.5452 c 0.4146,-1.0803 -0.1406,-1.3555 -1.388,-0.6879 -0.6297,0.337 -0.6295,0.3381 0.095,0.7394 0.9424,0.5221 1.0752,0.5168 1.2933,-0.051 z m -455.85447,-0.096 c 0.83799,-0.5307 -0.0279,-0.9288 -2.00613,-0.9222 l -2.0073,0.01 0.75,0.5866 c 0.77874,0.6092 2.54067,0.7868 3.26343,0.329 z m 468.92017,-3.8143 c 0.091,-0.092 -0.3061,-0.094 -0.8836,-0.01 -0.5775,0.09 -1.6916,0.2453 -2.4757,0.3453 -1.2914,0.1645 -1.3966,0.2359 -1.1173,0.7577 0.3003,0.5612 0.3598,0.5567 2.3093,-0.1771 1.1005,-0.4142 2.0758,-0.8288 2.1673,-0.9213 z M 348.75,944.07505 c 0,-0.6431 -0.87171,-0.5502 -0.99813,0.1063 -0.0772,0.4009 0.045,0.5231 0.44589,0.4459 0.30372,-0.059 0.55224,-0.307 0.55224,-0.5522 z m 452.569,-2.2688 c 0.5953,-0.7173 -0.2729,-1.1618 -0.9942,-0.509 -0.417,0.3774 -0.4525,0.5426 -0.1569,0.7302 0.543,0.3446 0.7078,0.3129 1.1511,-0.2212 z m -462.184,-0.093 c -0.15675,-0.1465 -0.6225,-0.3546 -1.035,-0.4625 l -0.75,-0.1962 0.75,0.4518 c 0.83586,0.5037 1.49325,0.635 1.035,0.2069 z m -5.93652,-2.6192 c -0.46833,-0.2538 -0.9267,-0.3863 -1.01856,-0.2944 -0.0919,0.092 0.15633,0.2963 0.55152,0.4544 1.12245,0.449 1.4094,0.3507 0.46704,-0.16 z M 808.95,938.83735 c 1.4189,-0.8739 1.3304,-0.9192 -0.5468,-0.2795 -0.772,0.263 -1.3281,0.6005 -1.2357,0.75 0.2473,0.4002 0.46,0.3441 1.7825,-0.4705 z m 80.3776,-19.3941 c -0.1945,-0.3146 -0.7276,-0.062 -0.7276,0.3446 0,0.1501 0.2017,0.1954 0.4483,0.1008 0.2465,-0.095 0.3722,-0.2951 0.2793,-0.4454 z M 249.9,919.34725 c 0,-0.073 -0.135,-0.2157 -0.3,-0.3177 -0.165,-0.102 -0.3,-0.042 -0.3,0.1323 0,0.1747 0.135,0.3177 0.3,0.3177 0.165,0 0.3,-0.06 0.3,-0.1323 z m 644.5813,-3.0865 c -0.305,-0.3049 -0.5566,0.1542 -0.3064,0.559 0.189,0.3059 0.2596,0.3061 0.3613,0 0.069,-0.2084 0.045,-0.4605 -0.055,-0.5602 z m 8.2187,-5.1895 c 0,-0.1501 -0.2017,-0.1955 -0.4483,-0.1009 -0.2465,0.095 -0.3722,0.2951 -0.2793,0.4455 0.1945,0.3146 0.7276,0.062 0.7276,-0.3446 z m 1.65,-1.4917 c 0.102,-0.165 0.05,-0.3 -0.1146,-0.3 -0.165,0 -0.3834,0.135 -0.4854,0.3 -0.102,0.165 -0.05,0.3 0.1146,0.3 0.165,0 0.3834,-0.135 0.4854,-0.3 z m -669.75,-0.6354 c 0,-0.165 -0.135,-0.2166 -0.3,-0.1146 -0.165,0.102 -0.3,0.3204 -0.3,0.4854 0,0.165 0.135,0.2166 0.3,0.1146 0.165,-0.102 0.3,-0.3204 0.3,-0.4854 z m -5.36277,-2.74463 c -0.29629,-0.29406 -0.33075,-0.25962 -0.16794,0.16794 0.11266,0.29586 0.2804,0.46236 0.37277,0.37002 0.0924,-0.0924 1.9e-4,-0.33444 -0.20483,-0.53796 z M 259.8,906.74723 c 0,-0.0728 -0.135,-0.21573 -0.3,-0.3177 -0.165,-0.10197 -0.3,-0.0425 -0.3,0.1323 0,0.17472 0.135,0.3177 0.3,0.3177 0.165,0 0.3,-0.0595 0.3,-0.1323 z m 622.5,-0.1677 c 0,-0.165 -0.2025,-0.3 -0.45,-0.3 -0.2475,0 -0.45,0.135 -0.45,0.3 0,0.165 0.2025,0.3 0.45,0.3 0.2475,0 0.45,-0.135 0.45,-0.3 z m 27.45,0 c 0.102,-0.165 0.043,-0.3 -0.1323,-0.3 -0.1747,0 -0.3177,0.135 -0.3177,0.3 0,0.165 0.06,0.3 0.1323,0.3 0.073,0 0.2157,-0.135 0.3177,-0.3 z m -655.05,-2.4 c 0,-0.165 -0.0595,-0.3 -0.13229,-0.3 -0.0728,0 -0.21573,0.135 -0.31771,0.3 -0.10198,0.165 -0.0424,0.3 0.13229,0.3 0.17474,0 0.31771,-0.135 0.31771,-0.3 z m -7.09085,-4.64829 c -0.0946,-0.24654 -0.29508,-0.37221 -0.44548,-0.27927 -0.31457,0.19443 -0.062,0.72756 0.34462,0.72756 0.15008,0 0.19547,-0.20172 0.10086,-0.44829 z m 736.54087,-64.95171 c 0.102,-0.165 0.05,-0.3 -0.1146,-0.3 -0.165,0 -0.3834,0.135 -0.4854,0.3 -0.102,0.165 -0.05,0.3 0.1146,0.3 0.165,0 0.3834,-0.135 0.4854,-0.3 z M 154.5,831.31163 c 0,-0.14736 -0.2025,-0.3456 -0.45,-0.44058 -0.45728,-0.17547 -0.6144,0.14409 -0.25,0.50847 0.28671,0.28671 0.7,0.24663 0.7,-0.0679 z m 833.25372,-2.97846 c -0.2385,-0.23838 -0.7542,0.30279 -0.5711,0.59913 0.1246,0.20154 0.2792,0.17088 0.4386,-0.0871 0.1354,-0.21909 0.195,-0.44952 0.1325,-0.51207 z m -5.3141,-16.17864 0.3404,-1.125 -0.5834,0.75 c -0.6089,0.78294 -0.7747,1.5 -0.3469,1.5 0.1373,0 0.4028,-0.50625 0.5899,-1.125 z M 157.2,811.66585 c 0,-0.0623 -0.23625,-0.29853 -0.525,-0.525 -0.47582,-0.37314 -0.48643,-0.36255 -0.11327,0.11328 0.39191,0.49971 0.63827,0.65865 0.63827,0.41172 z m 879.75,-63.78672 c 0.256,-0.495 0.3566,-0.9 0.2235,-0.9 -0.1331,0 -0.3948,0.405 -0.5817,0.9 -0.1868,0.495 -0.2874,0.9 -0.2234,0.9 0.064,0 0.3256,-0.405 0.5816,-0.9 z m -15.1117,-1.125 c 0.3731,-0.47583 0.3625,-0.48642 -0.1133,-0.11328 -0.4997,0.39192 -0.6586,0.63828 -0.4117,0.63828 0.062,0 0.2985,-0.23625 0.525,-0.525 z m -919.26053,-1.06686 c -0.17606,-0.63765 -0.49364,-1.10814 -0.74797,-1.10814 -0.35922,0 -0.32457,0.23019 0.18503,1.22907 0.74657,1.4634 0.98618,1.41192 0.56294,-0.12093 z m 14.52534,-0.74625 c -0.0952,-0.36405 -0.28945,-0.66189 -0.43167,-0.66189 -0.14222,0 -0.10454,0.33807 0.0837,0.75126 0.40575,0.89052 0.59171,0.84276 0.34795,-0.0894 z m 922.69799,-4.98078 c -0.4427,-0.44268 -1.0272,0.25887 -0.7695,0.92373 0.2014,0.51966 0.2314,0.51783 0.641,-0.0387 0.2875,-0.39069 0.33,-0.68349 0.1285,-0.885 z m -7.2695,-17.58111 c 0.1676,-0.66 0.2647,-1.2 0.216,-1.2 -0.2389,0 -1.2873,1.95492 -1.1594,2.1618 0.3213,0.5199 0.6532,0.18156 0.9434,-0.9618 z m 14.8744,0.675 c 0.5681,-2.03709 0.5649,-2.04999 -0.2293,-0.91593 -0.8957,1.27905 -0.9347,1.44093 -0.3469,1.44093 0.2363,0 0.4956,-0.23625 0.5762,-0.525 z m -940.3068,-3.0765 c -0.29569,-0.55248 -0.8992,-1.07985 -0.8992,-0.78573 0,0.57045 0.65494,1.6887 0.90025,1.53708 0.20172,-0.12468 0.20138,-0.37311 -0.001,-0.75135 z m -19.50527,-75.2985 c -0.003,-1.04244 -0.31436,-2.1 -0.61837,-2.1 -0.5766,0 -0.87567,1.24365 -0.68638,2.85426 l 0.19729,1.67856 0.55478,-0.84141 c 0.30514,-0.46278 0.55384,-1.17891 0.55268,-1.59141 z m 967.31857,-11.33931 c 0.2372,-0.38379 -0.313,-1.05756 -0.679,-0.83142 -0.4816,0.29766 -0.4103,1.07073 0.099,1.07073 0.2378,0 0.4988,-0.1077 0.5802,-0.23931 z M 87.41269,519.95413 c 0.0842,-0.28875 0.2281,-1.2 0.31973,-2.025 l 0.1666,-1.5 -0.76389,1.62117 c -0.72972,1.54863 -0.78943,2.42883 -0.16476,2.42883 0.15906,0 0.3581,-0.23625 0.44232,-0.525 z m 959.90461,-72.17955 c -0.1664,-0.43749 -0.4408,-0.79545 -0.6099,-0.79545 -0.4156,0 -0.3905,0.16974 0.191,1.28991 0.5649,1.08828 0.8795,0.71694 0.4189,-0.49446 z m -942.46564,-1.99812 c 0.10289,-0.1665 0.097,-0.58653 -0.0131,-0.93348 -0.17386,-0.54777 -0.2568,-0.57414 -0.63039,-0.20055 -0.23741,0.23739 -0.34365,0.65571 -0.23707,0.93345 0.21733,0.56634 0.60058,0.65364 0.88059,0.20058 z m -10.05833,-3.05463 c 0.004,-0.114 -0.11518,-0.2826 -0.26411,-0.37464 -0.22803,-0.14094 -0.94356,1.33404 -0.92255,1.9017 0.009,0.24177 1.17815,-1.26282 1.18666,-1.52706 z M 1044.9,440.36143 c 0,-0.67401 -0.3819,-0.7566 -0.8561,-0.18516 -0.2401,0.28926 -0.237,0.48972 0.011,0.73803 0.4439,0.44397 0.8448,0.18165 0.8448,-0.55287 z m -937.64492,-3.25578 c -0.67921,-0.67923 -1.23062,-0.015 -0.74338,0.89535 0.35494,0.66321 0.38118,0.66726 0.78073,0.12084 0.35383,-0.4839 0.34844,-0.63042 -0.0373,-1.01619 z m 925.13002,-2.26383 c -0.252,-0.45036 -0.3189,-0.4539 -0.6662,-0.0355 -0.2123,0.25581 -0.2985,0.69333 -0.1914,0.97221 0.1769,0.46107 0.2374,0.46428 0.6662,0.0355 0.3307,-0.33072 0.3879,-0.62115 0.1914,-0.97224 z m -922.38876,-4.96269 c 0.17617,-0.66 0.28481,-1.2 0.24144,-1.2 -0.23193,0 -1.27425,1.96008 -1.14958,2.1618 0.30991,0.50145 0.59942,0.19485 0.90814,-0.9618 z m 919.67876,-1.37508 c 0.096,-0.0963 -0.1004,-0.64206 -0.4372,-1.21281 -0.7507,-1.27233 -0.919,-1.18101 -0.5157,0.27975 0.2911,1.05414 0.5643,1.32165 0.9529,0.93306 z m 10.0993,-1.55667 c -0.8317,-0.58248 -1.2654,0.004 -0.7842,1.06002 l 0.3342,0.7335 0.5448,-0.67275 c 0.53,-0.65445 0.5274,-0.68493 -0.095,-1.12077 z m -47.21508,-75.05319 c -0.1104,-0.17865 -0.3408,-0.23826 -0.5121,-0.13245 -0.2015,0.12456 -0.1709,0.27918 0.087,0.43857 0.4814,0.29754 0.7006,0.13971 0.425,-0.30612 z M 149.4,349.44703 c 0,-0.43128 -0.52054,-0.30771 -0.70262,0.16683 -0.1115,0.29055 -0.0226,0.37938 0.2679,0.2679 0.2391,-0.0918 0.43472,-0.28737 0.43472,-0.43473 z m 840.30002,-2.8002 c 0,-0.0728 -0.135,-0.21573 -0.3,-0.3177 -0.165,-0.10197 -0.3,-0.0425 -0.3,0.1323 0,0.17472 0.135,0.3177 0.3,0.3177 0.165,0 0.3,-0.0595 0.3,-0.1323 z M 152.7,343.44373 c 0,-0.165 -0.135,-0.21657 -0.3,-0.1146 -0.165,0.10197 -0.3,0.3204 -0.3,0.4854 0,0.165 0.135,0.21657 0.3,0.1146 0.165,-0.10197 0.3,-0.3204 0.3,-0.4854 z m 831.90002,-4.2969 c 0,-0.0728 -0.135,-0.21573 -0.3,-0.3177 -0.165,-0.10197 -0.3,-0.0425 -0.3,0.1323 0,0.17472 0.135,0.3177 0.3,0.3177 0.165,0 0.3,-0.0595 0.3,-0.1323 z M 241.35,707.52859 c -14.42859,-1.25691 -15.52703,-1.50099 -17.24026,-3.83061 -1.1431,-1.55436 -1.16731,-2.7306 -0.10104,-4.90818 1.12604,-2.29971 2.45788,-3.41067 4.08871,-3.41067 1.7198,0 4.585,-0.77418 6.05259,-1.63539 3.0319,-1.77921 5.18434,-5.12172 6.5778,-10.21461 4.59268,-16.78551 16.3191,-63.28833 17.10157,-67.81878 1.22007,-7.06401 3.48885,-10.92108 7.61091,-12.93903 1.47691,-0.723 2.14724,-0.85203 4.92275,-0.94737 4.53195,-0.15567 7.39721,0.49599 8.60082,1.95618 1.36239,1.65282 1.7127,3.33234 1.26555,6.06756 -0.63442,3.8808 -2.87688,13.56033 -7.37438,31.83144 -4.63722,18.83865 -5.21868,21.43584 -7.96526,35.57778 -1.89443,9.75435 -1.9881,10.54029 -1.44833,12.15246 0.83269,2.487 2.68395,3.98523 6.47801,5.24265 2.66769,0.8841 3.71112,1.52322 6.23056,3.81624 l 1.8,1.63824 -1.81264,2.33847 c -1.00665,1.29867 -2.27391,2.57307 -2.85,2.86608 -0.57055,0.29016 -2.52236,0.74007 -4.33736,0.99981 -3.11482,0.44571 -18.85506,2.00466 -19.5,1.93134 -0.165,-0.0189 -3.81,-0.3399 -8.1,-0.71361 z m 88.5,-0.15198 c -5.93886,-0.33006 -7.91817,-1.05597 -10.32033,-3.78498 -1.06407,-1.20885 -1.22967,-1.58538 -1.22967,-2.796 0,-2.24061 2.35794,-5.4165 4.0215,-5.4165 0.95829,0 4.81635,-1.12071 6.36657,-1.84941 2.01099,-0.94527 4.36338,-3.2418 5.31828,-5.19201 1.72353,-3.51984 2.00574,-7.32708 1.25307,-16.90317 -0.24234,-3.08298 -0.64749,-9.79041 -0.90033,-14.90541 -0.8382,-16.95636 -1.54119,-25.05912 -2.43366,-28.05 -1.9695,-6.60036 -7.41555,-12.19281 -18.55074,-19.0494 -10.28088,-6.33057 -20.12907,-10.14417 -29.08751,-11.26389 -7.75128,-0.96882 -20.40795,0.80034 -26.02444,3.63771 -2.29248,1.15812 -3.90721,4.03485 -4.64542,8.27604 -1.60057,9.1956 -8.46094,16.9401 -16.05986,18.12957 -2.96129,0.46353 -7.49368,0.1725 -9.60275,-0.61662 -4.90135,-1.83384 -6.699,-6.19692 -6.68015,-16.21341 0.008,-4.34766 0.0897,-5.16639 0.66957,-6.72834 1.72145,-4.63659 6.6719,-10.36521 12.05587,-13.95093 6.58415,-4.38507 22.53909,-10.82073 26.8261,-10.82073 1.21109,0 3.86652,-1.33998 5.10021,-2.57367 1.66099,-1.66101 2.36456,-3.48393 3.17268,-8.22039 0.33993,-1.99239 1.62677,-7.12968 2.85963,-11.41617 2.4451,-8.50125 7.08705,-26.42316 14.56666,-56.23977 4.9925,-19.90203 13.75822,-53.91312 18.13291,-70.35597 1.38369,-5.20077 3.2817,-12.54903 4.21776,-16.32948 1.59888,-6.45732 1.68093,-6.96453 1.35513,-8.37606 -0.67584,-2.92791 -2.80608,-4.55934 -7.08108,-5.42304 -3.59993,-0.72732 -5.15492,-1.31607 -6.28095,-2.37804 -2.78176,-2.62356 -0.79288,-7.21641 4.18095,-9.65493 l 1.8,-0.88248 28.95,0 c 27.86379,0 28.98939,0.0213 30,0.56946 1.53045,0.83004 2.8881,1.91505 3.42879,2.74026 0.2604,0.39741 0.73422,2.51532 1.05297,4.70643 1.28253,8.81661 1.84926,17.04897 3.32049,48.23385 1.35036,28.62258 1.52466,31.5225 5.40045,89.85 1.48017,22.275 3.36981,50.76 4.19922,63.3 1.85127,27.98913 2.5119,36.86163 4.95015,66.48033 2.05587,24.97419 2.06589,25.04439 3.91518,27.46896 1.101,1.44348 3.15996,2.69763 5.68275,3.46149 2.13873,0.64755 3.51765,1.38741 5.75139,3.0858 l 1.25142,0.95151 -1.40142,2.51082 c -1.88892,3.3843 -3.36834,4.89183 -5.45139,5.55489 -1.51797,0.48318 -3.97863,0.53088 -30.75,0.59613 -16.005,0.039 -30.99,-0.0341 -33.3,-0.16245 z m -2.38233,-116.52297 c 0.55158,-0.40302 0.59025,-0.96957 0.73233,-10.725 0.11919,-8.18385 0.0439,-11.56281 -0.36654,-16.44951 -2.03481,-24.22671 -2.26734,-28.90851 -4.30602,-86.7 -0.68865,-19.52232 -0.855,-22.50183 -1.3146,-23.55 l -0.5262,-1.2 -0.49584,1.05 c -0.77433,1.63965 -3.23784,11.11491 -9.47679,36.45 -3.16935,12.87 -7.70478,31.0275 -10.07874,40.35 -7.64572,30.02469 -10.80831,43.72527 -10.4438,45.24339 0.29722,1.23789 1.17374,2.83551 1.95433,3.56211 0.76979,0.71655 3.41382,1.74294 16.7542,6.504 4.8675,1.73715 10.47,3.76797 12.45,4.5129 4.00371,1.50633 4.28703,1.55901 5.11767,0.95211 z M 631.5,675.30892 c -2.59029,-0.57204 -3.66777,-0.95943 -7.95,-2.85825 -2.91579,-1.29291 -4.26,-1.35711 -6.08025,-0.29037 -1.00344,0.58806 -1.56621,0.73455 -2.27637,0.59259 -1.47051,-0.294 -4.04568,-2.14389 -4.31244,-3.09789 -0.12702,-0.45423 -0.23094,-4.60587 -0.23094,-9.22587 0,-9.5649 -0.0452,-9.36963 2.69919,-11.65509 1.57302,-1.30992 1.27176,-1.39614 4.00056,1.14483 1.50582,1.40214 2.15214,2.54688 3.06654,5.43147 1.51926,4.79265 4.00239,8.21328 6.96276,9.59154 3.04875,1.41942 7.92753,0.75729 10.17606,-1.38105 1.48554,-1.41276 2.84751,-4.39845 3.28167,-7.19406 0.29961,-1.92942 0.276,-2.60088 -0.16041,-4.56249 -0.69162,-3.10869 -2.75589,-6.2112 -11.42748,-17.17515 -9.91125,-12.5313 -16.05882,-21.09303 -18.12558,-25.2435 -1.97139,-3.95904 -2.27421,-5.35587 -2.26668,-10.4565 0.006,-4.26048 0.0561,-4.63926 0.93639,-7.11669 1.37484,-3.86928 3.22572,-6.89313 6.02742,-9.84723 3.96111,-4.1766 8.4315,-6.91851 13.76106,-8.44038 1.92246,-0.54897 3.10293,-0.67461 6.2685,-0.66726 3.41259,0.008 4.51863,0.15015 8.85,1.13817 5.10954,1.1655 8.76735,1.60638 10.55121,1.27173 0.56388,-0.10581 1.75725,-0.66396 2.65191,-1.24035 2.79711,-1.80207 4.27419,-1.40154 5.12658,1.3902 0.41793,1.36884 0.65097,17.74812 0.27249,19.15368 -0.3057,1.13529 -1.46115,2.99874 -2.98131,4.80813 l -0.88218,1.05 -1.06929,-1.0338 c -1.8018,-1.74198 -2.55708,-3.10821 -3.34236,-6.04614 -1.43649,-5.37417 -3.01005,-7.68396 -6.35784,-9.33246 -1.94439,-0.95745 -2.12028,-0.9876 -5.7624,-0.9876 -4.20522,0 -5.48712,0.31203 -7.10022,1.72836 -1.33089,1.16853 -2.14197,2.76981 -2.67369,5.27844 -0.81147,3.82842 -0.31839,7.52943 1.51836,11.39709 1.72899,3.64083 3.57183,6.05295 14.57649,19.07961 9.7068,11.49039 12.29037,15.42189 13.81074,21.0165 0.53799,1.9797 0.65241,3.21432 0.65334,7.05 0,4.03038 -0.10029,5.03022 -0.75993,7.50345 -2.55051,9.56286 -8.8932,16.36146 -17.64351,18.91167 -3.23619,0.94317 -10.22055,1.10256 -13.78839,0.31467 z m 251.2617,0.25857 c -3.7115,-0.5865 -6.3963,-1.64289 -9.6269,-3.78789 -1.1026,-0.73206 -1.9139,-1.04193 -2.7585,-1.0536 -1.0686,-0.0147 -1.371,0.16362 -2.8284,1.66833 -1.6206,1.67313 -2.4021,1.99053 -3.6873,1.49736 -0.8877,-0.34065 -1.9452,-2.99091 -2.44,-6.11535 -0.684,-4.31835 -0.4994,-13.19301 0.3057,-14.69721 0.6415,-1.19862 3.439,-5.4 3.5956,-5.4 0.057,0 1.1361,1.17141 2.3979,2.6031 1.8384,2.08581 2.3855,2.93535 2.753,4.275 1.6676,6.07836 3.4366,8.7147 6.668,9.93729 2.1946,0.83031 5.8981,0.6921 8.6092,-0.32124 6.0001,-2.24271 7.9417,-10.95468 3.8818,-17.41764 -0.9203,-1.46514 -4.379,-5.78871 -12.5805,-15.72651 -12.2996,-14.90346 -13.2536,-16.22283 -15.1109,-20.89839 -1.3357,-3.36228 -1.9173,-6.51165 -1.9303,-10.45161 -0.013,-3.89661 0.3773,-6.32229 1.5071,-9.37026 2.6562,-7.1661 10.5598,-14.20659 18.9014,-16.83738 6.5482,-2.06517 14.2541,-1.58655 20.5844,1.27848 1.1291,0.51105 2.3468,0.92916 2.706,0.92916 1.0932,0 5.0405,-1.19478 5.8654,-1.77537 1.7165,-1.20813 2.8042,-0.84582 3.5756,1.191 0.1595,0.42108 0.3372,4.94358 0.395,10.05 0.1165,10.29885 0.1768,9.8886 -1.9569,13.30503 l -1.1996,1.92063 -1.9745,-2.07063 c -2.3099,-2.42238 -2.8447,-3.43356 -3.4999,-6.61788 -0.6123,-2.97528 -1.2644,-4.25448 -2.8788,-5.6472 -5.1345,-4.42965 -13.799,-4.57335 -16.7544,-0.27786 -2.0493,2.97861 -2.8476,7.43022 -1.9587,10.92228 0.971,3.81468 7.8436,13.14876 19.4931,26.47479 6.0779,6.95247 10.1267,14.67174 11.8992,22.68633 1.3182,5.96094 0.1334,11.22921 -3.899,17.33619 -3.9458,5.97582 -9.757,10.46487 -15.4655,11.94687 -2.185,0.56724 -10.0527,0.84486 -12.5883,0.44418 z m -131.238,-1.68129 c -2.6464,-0.9264 -5.0893,-2.79702 -6.0166,-4.60707 -0.667,-1.30215 -2.3475,-6.4365 -3.7343,-11.40957 -2.3172,-8.30961 -15.48063,-62.76288 -16.38132,-67.76502 -1.12305,-6.23682 -2.30892,-8.07273 -6.5385,-10.12242 -0.0533,-0.0258 0.37017,-1.05819 0.94119,-2.29404 0.72063,-1.55976 1.25499,-2.3247 1.74702,-2.50095 1.04454,-0.37416 28.73511,-0.13872 29.49331,0.25077 1.3343,0.6855 1.9656,1.52841 1.9609,2.61852 -0.01,1.43904 -0.1929,1.65117 -1.9681,2.23521 -0.8771,0.28857 -1.9474,0.93918 -2.5245,1.53459 -1.5473,1.59642 -1.5564,3.16035 -0.054,9.20181 0.6705,2.69559 1.6949,6.8586 2.2763,9.2511 1.9112,7.86426 7.3136,27.72201 7.9168,29.1 l 0.5909,1.35 0.3576,-0.9 c 0.5428,-1.36611 1.5254,-5.18838 4.6269,-18 4.1881,-17.30022 5.3679,-22.87446 5.1431,-24.3 -0.2899,-1.83879 -3.0122,-7.27176 -4.3956,-8.77254 l -1.229,-1.33338 1.5941,-1.13862 1.5942,-1.13859 4.5614,-0.21378 c 2.5087,-0.1176 6.72,-0.11595 9.3584,0.004 4.1386,0.18756 4.9556,0.30759 5.9515,0.87441 0.9252,0.52662 1.1432,0.81603 1.0984,1.45824 -0.031,0.44064 -1.2096,2.87439 -2.6197,5.40831 -1.4102,2.53389 -2.9016,5.34447 -3.3142,6.24573 -0.8406,1.83606 -3.9157,14.12967 -10.7951,43.15662 -2.5614,10.8075 -5.683,23.295 -6.9369,27.75 -1.2538,4.455 -2.4751,8.811 -2.7138,9.67998 -0.55,2.00178 -2.4429,4.06407 -4.1644,4.53702 -1.676,0.46041 -4.2566,0.38958 -5.8263,-0.15993 z m -349.0737,-0.70053 -9.6,-0.15885 -1.725,-0.82005 c -0.94875,-0.45105 -1.725,-0.8889 -1.725,-0.97302 0,-0.0841 0.58725,-0.95067 1.305,-1.92564 1.98369,-2.69466 4.01673,-6.32193 4.38807,-7.82898 0.23679,-0.96102 0.30732,-11.85279 0.2448,-37.8 -0.0803,-33.28515 -0.13134,-36.54582 -0.58863,-37.55364 -0.66561,-1.46688 -3.68871,-6.09924 -4.93836,-7.56708 l -0.99669,-1.17072 1.4907,-1.11222 1.4907,-1.11219 13.42722,-0.19446 c 7.38495,-0.10695 17.90973,-0.0835 23.38842,0.0521 l 9.96123,0.24651 2.51778,1.24764 c 4.15602,2.05938 8.01267,6.66543 9.34776,11.16411 0.41406,1.39521 0.5358,4.54527 0.78846,20.4 l 0.29883,18.75 1.0227,0.96561 c 1.62945,1.53849 2.14068,1.53276 6.08961,-0.0683 5.67516,-2.30094 7.12818,-3.38307 8.23362,-6.13185 0.66057,-1.64259 0.6711,-1.89528 0.76755,-18.40083 0.0848,-14.51223 0.0352,-16.95045 -0.37287,-18.3543 -0.54906,-1.88874 -1.81146,-3.29304 -3.71862,-4.13667 l -1.30947,-0.57924 0.20961,-1.67769 c 0.11529,-0.92271 0.32844,-1.9902 0.47367,-2.37219 l 0.26406,-0.69453 15.27534,0 c 13.65234,0 15.29466,0.0504 15.45741,0.47454 0.10017,0.261 0.1821,1.58277 0.1821,2.93727 0,2.43798 -0.015,2.48658 -1.49739,4.83408 -0.82359,1.30422 -1.59543,2.8512 -1.71525,3.43773 -0.11982,0.5865 -0.22224,8.55888 -0.22761,17.71638 l -0.01,16.65 0.94905,1.36632 c 2.76975,3.9876 10.7901,9.58368 13.73538,9.58368 0.91896,0 2.15019,-1.45743 2.58015,-3.05412 0.23043,-0.85575 0.30087,-7.73442 0.23289,-22.74225 l -0.0975,-21.51543 -1.6806,-2.5191 c -0.92433,-1.38552 -2.06166,-3.17868 -2.52738,-3.98484 -0.96195,-1.66509 -0.96057,-1.66782 1.50798,-2.95878 1.16904,-0.6114 1.5621,-0.62721 15.23433,-0.61281 l 14.03433,0.0147 1.64724,1.09371 c 1.33494,0.88635 1.59669,1.19181 1.38054,1.61127 -0.14667,0.28464 -0.5064,1.03197 -0.79938,1.66071 -0.35034,0.75189 -1.06827,1.48581 -2.09748,2.14416 -1.91565,1.22544 -2.64279,2.20905 -3.29721,4.4601 -0.46275,1.59183 -0.49425,4.66923 -0.38388,37.49337 0.10938,32.52849 0.16557,35.87685 0.62208,37.06116 0.276,0.71607 1.73517,3.25887 3.24258,5.65068 3.07818,4.88406 3.10797,5.10174 0.87078,6.35913 -1.10877,0.62316 -1.43691,0.63825 -13.87578,0.63825 -7.00707,0 -13.55964,-0.0857 -14.56128,-0.19035 l -1.82115,-0.19035 -0.77286,-1.72215 c -0.42507,-0.94719 -0.77286,-1.96308 -0.77286,-2.25753 0,-0.29445 0.72561,-1.29609 1.61247,-2.22588 3.53022,-3.70107 4.26567,-7.61292 2.5812,-13.72971 -1.88655,-6.85065 -5.4288,-11.00568 -11.39367,-13.36473 -2.16696,-0.85704 -5.5797,-1.63959 -5.87262,-1.34667 -0.33375,0.33375 -0.49842,17.3757 -0.19572,20.25249 0.30663,2.91393 0.33414,2.98434 3.3114,8.47488 0.84999,1.5675 1.54803,3.19599 1.55118,3.61887 0.004,0.47145 -0.34989,1.1097 -0.91365,1.65 l -0.91941,0.88113 -14.59593,0.0911 c -8.02776,0.0501 -14.89872,0.0153 -15.26883,-0.0778 -0.80262,-0.20145 -2.79642,-2.17944 -2.79642,-2.77428 0,-0.79776 0.8964,-2.14749 1.56777,-2.36058 2.17497,-0.6903 4.03179,-2.81826 4.6932,-5.37849 0.43464,-1.6824 0.53031,-19.57872 0.10695,-20.00208 -0.51471,-0.51471 -1.68708,-0.0523 -3.36087,1.32555 -3.59967,2.96322 -3.22086,2.85945 -7.4208,2.0331 -1.66704,-0.32802 -1.98168,-0.30813 -2.98065,0.18834 -2.0343,1.01103 -2.26131,1.61313 -2.54859,6.75954 -0.14112,2.52756 -0.38988,5.23506 -0.55278,6.01668 -0.77553,3.72051 -3.33063,7.98723 -6.08868,10.16733 -2.06814,1.63479 -5.21121,3.18078 -7.49256,3.68541 -2.21832,0.49065 -19.50477,0.732 -34.57299,0.48267 z m 21.48837,-7.66491 c 1.96764,-0.67044 3.41334,-2.01384 4.44159,-4.12731 1.89798,-3.90099 1.82004,-2.28264 1.82004,-37.79406 l 0,-32.35368 -2.20002,-2.75829 c -2.77587,-3.48027 -4.36971,-4.91913 -5.73207,-5.17473 -1.56459,-0.29352 -3.09906,0.0789 -3.5202,0.85434 -0.47406,0.87291 -0.38679,76.22007 0.0905,78.0621 0.17097,0.66 0.64302,1.77375 1.04901,2.475 0.63147,1.0908 0.88029,1.275 1.72203,1.275 0.54117,0 1.58928,-0.20628 2.32917,-0.45837 z m 66.12093,-28.62657 c -0.1104,-0.17865 -0.34083,-0.23826 -0.51207,-0.13245 -0.20154,0.12456 -0.17088,0.27918 0.0871,0.43857 0.48141,0.29754 0.70056,0.13971 0.42501,-0.30612 z M 564.9,673.20562 c -13.69128,-0.16725 -14.94948,-0.22572 -16.125,-0.74946 -0.70125,-0.31242 -1.275,-0.66579 -1.275,-0.78525 0,-0.11946 1.05945,-2.2284 2.35431,-4.68654 1.29486,-2.45811 2.52828,-4.99644 2.74089,-5.64072 0.30717,-0.93072 0.38382,-8.6037 0.37302,-37.34295 -0.0117,-31.04388 -0.0761,-36.34299 -0.45438,-37.38075 -0.41604,-1.14132 -2.2185,-4.15701 -4.14786,-6.93987 -0.47628,-0.68697 -0.86598,-1.40046 -0.86598,-1.58556 0,-0.61743 0.95097,-1.79796 1.94145,-2.41011 0.95931,-0.59289 1.43781,-0.60528 23.37501,-0.60528 l 22.39563,0 1.41897,2.175 1.41894,2.175 -0.0114,5.55 c -0.0147,7.24224 -0.8439,11.61177 -2.55099,13.44414 -0.79338,0.85158 -1.23834,0.82692 -2.3778,-0.13188 -1.33596,-1.12413 -2.08674,-2.79084 -2.5521,-5.66559 -0.9528,-5.88588 -3.52338,-8.76129 -8.33829,-9.32718 -1.4862,-0.17469 -1.84395,-0.10356 -3.05802,0.60792 -0.75618,0.44316 -1.74312,1.362 -2.19318,2.04186 l -0.81828,1.23612 -0.091,17.08629 -0.091,17.08629 0.83385,1.64802 0.83382,1.64805 1.14396,-1.31202 c 0.62916,-0.72162 2.03412,-2.72952 3.12213,-4.46202 1.08801,-1.7325 2.00925,-3.18777 2.0472,-3.23394 0.14181,-0.17247 2.54562,3.73974 3.17835,5.17284 0.60543,1.37118 0.64167,1.78629 0.45861,5.25 -0.18039,3.41322 -1.16472,11.36163 -1.57362,12.70701 -0.0912,0.30024 -0.92319,1.03032 -1.84875,1.6224 -1.55778,0.99651 -1.70631,1.03653 -1.99815,0.53865 -0.68628,-1.17069 -4.42446,-6.15678 -4.61376,-6.1539 -0.11085,0.003 -0.45582,0.57543 -0.76662,1.275 -0.72963,1.64238 -1.15272,11.35485 -0.80319,18.43905 0.21456,4.34898 0.32277,5.03601 1.0164,6.45375 0.42696,0.87264 1.26264,2.05746 1.85709,2.63289 1.61661,1.56492 3.07227,1.45953 10.84842,-0.7854 l 1.55367,-0.4485 -0.55242,-1.60563 c -0.72756,-2.11473 -1.02096,-2.65254 -2.70825,-4.96422 -3.06675,-4.20159 -3.4074,-6.00261 -1.63356,-8.63661 1.09326,-1.62339 3.03066,-3.24999 4.22931,-3.55083 1.66938,-0.41898 5.92302,1.93344 7.47951,4.13646 0.44754,0.63345 0.87492,1.93722 1.16397,3.55098 0.60225,3.36213 1.22082,14.90337 0.93726,17.48742 -0.21204,1.9326 -0.28251,2.07645 -1.36923,2.79561 -0.63012,0.417 -1.76625,0.94494 -2.52477,1.17321 -1.82547,0.54939 -12.18762,0.70467 -31.37913,0.47025 z m 250.95,0.003 -14.4,-0.17829 -1.7135,-0.99039 -1.7134,-0.99042 0.9991,-1.40958 c 0.5495,-0.77529 1.7256,-2.75961 2.6134,-4.40961 l 1.6144,-3 0.08,-37.33626 c 0.066,-30.88662 0.01,-37.57818 -0.3309,-38.73672 -0.2258,-0.77025 -1.3754,-2.95545 -2.5547,-4.85598 -1.1792,-1.90053 -2.144,-3.65877 -2.144,-3.9072 0,-0.24843 0.4772,-0.87066 1.0604,-1.38276 l 1.0605,-0.93108 22.0491,0 c 18.3822,0 22.219,0.071 23.0702,0.42657 0.7,0.2925 1.3163,0.92895 1.9608,2.025 0.9223,1.56834 0.9371,1.65492 0.7897,4.59843 -0.1336,2.66829 -1.9046,16.02861 -2.1621,16.31145 -0.1473,0.16167 -2.6633,-1.35081 -3.0777,-1.85007 -0.1932,-0.23277 -0.6947,-1.81149 -1.1145,-3.50823 -0.4199,-1.69677 -0.9553,-3.45615 -1.1898,-3.90972 -1.0514,-2.03313 -5.939,-5.14866 -8.7419,-5.57238 -1.1535,-0.17436 -1.3429,-0.0982 -2.5711,1.03383 -0.7291,0.67215 -1.711,1.92996 -2.1819,2.79513 -0.8439,1.55058 -0.8595,1.66953 -1.0895,8.33652 -0.1284,3.71991 -0.1578,11.01597 -0.065,16.21347 l 0.1679,9.45 0.9311,1.575 c 0.512,0.86625 1.0037,1.57467 1.0926,1.57428 0.089,0 0.5431,-0.73086 1.0094,-1.62327 0.6675,-1.27749 3.6898,-5.2008 5.3086,-6.89112 0.2896,-0.3024 2.7275,3.35139 3.2348,4.84815 0.5116,1.50921 0.753,8.82117 0.4159,12.59346 -0.3273,3.66225 -1.0859,5.55438 -2.6333,6.56829 -0.9483,0.62133 -1.3494,0.44763 -4.9365,-2.1378 -1.4933,-1.07634 -2.7706,-1.95699 -2.8385,-1.95699 -0.068,0 -0.4519,0.57375 -0.8534,1.275 -0.693,1.21059 -0.7393,1.60842 -0.9159,7.875 -0.217,7.70409 0.1318,14.32146 0.8257,15.66339 0.7199,1.39197 3.3839,3.63861 4.581,3.86319 1.4521,0.27243 3.0282,-0.0162 6.9606,-1.275 3.306,-1.05822 3.3916,-1.10772 3.2046,-1.8528 -0.5485,-2.18541 -0.9768,-2.709 -2.9468,-3.60225 -2.6535,-1.20312 -3.5057,-2.45436 -3.5016,-5.14116 0.01,-3.12726 1.7734,-6.16845 4.917,-8.45454 1.6249,-1.18155 2.9047,-1.12722 5.1477,0.21855 3.5239,2.11431 4.9888,4.11984 5.5059,7.5381 0.3636,2.403 0.4085,11.95488 0.072,15.31017 -0.272,2.71275 -0.8419,3.52518 -3.3718,4.80717 l -1.9237,0.97479 -7.65,0.10347 c -4.2075,0.0569 -14.13,0.0231 -22.05,-0.0748 z m -141.11124,-1.25415 c -0.97218,-0.77406 -1.45653,-1.35729 -1.31418,-1.58247 0.12399,-0.19614 1.35633,-2.02863 2.73855,-4.07223 1.38225,-2.0436 2.79975,-4.33524 3.15,-5.09253 l 0.63687,-1.37691 0,-34.5 c 0,-39.35619 0.2727,-35.43558 -2.83773,-40.8 -3.93513,-6.78684 -4.25661,-7.86597 -2.63727,-8.8533 0.93747,-0.57156 1.55043,-0.59451 15.91971,-0.59559 10.48359,0 15.14034,0.0996 15.6,0.33639 2.80461,1.44444 2.61348,3.76872 -0.47409,5.76534 -2.00034,1.29354 -2.7243,2.09232 -3.58098,3.95091 l -0.68964,1.49625 -0.0882,35.4 c -0.0573,22.98615 0.0198,36.21759 0.21945,37.73148 0.52953,4.01292 1.86183,6.21174 4.65573,7.6839 2.66529,1.40436 2.64486,4.01319 -0.0423,5.39712 -0.45882,0.23634 -5.01105,0.3375 -15.18579,0.3375 l -14.53053,0 -1.53963,-1.22586 z M 432.7914,561.26326 c -0.63723,-0.15879 -2.22228,-0.8421 -3.52236,-1.51848 -2.75841,-1.43508 -5.00667,-3.67701 -6.50142,-6.48309 -1.78062,-3.34275 -2.10942,-5.40138 -3.07983,-19.28256 -1.48545,-21.24885 -2.03025,-27.14214 -2.6631,-28.80765 -0.88692,-2.33418 -2.03238,-4.08687 -3.09705,-4.7388 -1.96509,-1.20336 -3.18216,-0.89811 -4.35165,1.09134 l -0.82599,1.40511 0,10.35 c 0,5.6925 0.10746,10.8567 0.23877,11.47599 0.14583,0.68757 0.84663,1.84206 1.8,2.96517 3.27423,3.85719 4.70652,5.83257 4.70883,6.4944 0.003,0.96507 -0.77466,2.03883 -2.05365,2.83416 -1.08318,0.67359 -1.21494,0.68124 -13.39395,0.77871 -6.765,0.0541 -13.28946,0.008 -14.49876,-0.10284 -2.0622,-0.18873 -2.28117,-0.28017 -3.525,-1.47198 -0.74184,-0.71082 -1.32624,-1.54767 -1.32624,-1.89921 0,-0.34563 0.44472,-1.21254 0.98826,-1.92642 1.51296,-1.98711 4.62123,-6.86946 5.22381,-8.20542 0.50742,-1.12491 0.53793,-3.19197 0.53793,-36.44256 0,-33.10044 -0.0324,-35.32182 -0.53181,-36.42795 -0.42168,-0.93396 -4.04676,-6.88638 -6.00927,-9.86724 -0.3909,-0.59373 0.11808,-1.14801 2.61876,-2.85183 l 1.17765,-0.80241 9.92235,-0.10791 c 5.52465,-0.0601 9.9984,-0.22926 10.09398,-0.38169 0.25872,-0.41262 15.72561,0.57237 19.7616,1.25847 7.0005,1.19007 10.53219,3.04263 13.3629,7.0095 2.47545,3.46908 3.70692,7.36929 4.64799,14.72106 2.02431,15.81429 0.31596,24.35019 -6.3018,31.48746 -1.98072,2.13621 -2.09235,2.3328 -2.09232,3.68457 0,0.7854 0.87096,5.70045 1.93545,10.92234 2.61291,12.81783 2.77572,13.85847 3.30165,21.10563 0.25146,3.465 0.59232,6.7725 0.7575,7.35 0.49695,1.73754 1.45095,3.00747 2.63694,3.51021 0.96093,0.40731 1.39302,0.42198 3.06843,0.10416 3.6414,-0.69081 3.77103,-0.69258 4.98237,-0.0684 1.84179,0.94902 3.60615,2.6343 4.33569,4.14135 2.36439,4.88415 -1.84692,13.97607 -7.87029,16.99137 -2.69961,1.35144 -11.64297,2.40651 -14.45637,1.70544 z m -18.9207,-71.52345 c 1.3413,-0.56043 4.47252,-3.53715 5.41887,-5.15154 1.10355,-1.88244 2.41953,-5.72724 2.97504,-8.69181 0.642,-3.42618 0.63066,-9.32874 -0.0255,-13.2042 -0.59829,-3.53433 -2.10744,-9.49293 -2.68071,-10.5843 -0.56181,-1.06956 -2.30109,-2.67114 -4.8642,-4.47912 l -2.15568,-1.52055 -1.35156,2.49966 c -2.56269,4.73973 -2.43711,3.58686 -2.43711,22.37118 0,15.2913 0.0428,16.72836 0.525,17.61009 0.28875,0.52806 0.76125,1.0977 1.05,1.26588 0.75948,0.44235 2.33358,0.39117 3.5457,-0.11529 z M 599.25,539.53465 c -0.825,-0.22275 -2.2425,-0.70227 -3.15,-1.06557 -2.39061,-0.95712 -7.37373,-2.63466 -9.38133,-3.15819 -2.07348,-0.54069 -3.17598,-0.32175 -6.45522,1.28187 l -2.18655,1.06926 -0.71421,-0.67095 c -0.39279,-0.36903 -0.98529,-1.30116 -1.31664,-2.07141 -0.54852,-1.27503 -0.61008,-2.16549 -0.68742,-9.94548 -0.0971,-9.76236 -0.17442,-9.39807 2.68731,-12.65898 l 1.50411,-1.7139 1.73562,2.1639 c 0.9546,1.19016 1.85373,2.32527 1.99809,2.52249 0.14433,0.19722 0.78036,1.85466 1.41339,3.68319 3.23559,9.34626 8.12526,12.68058 14.26605,9.72822 2.58273,-1.24173 5.57928,-4.29246 6.30591,-6.41997 0.76041,-2.22639 0.70377,-5.06256 -0.14511,-7.26714 -0.87594,-2.27472 -4.5357,-7.70289 -9.0567,-13.43286 -16.40781,-20.79546 -19.90356,-25.82817 -21.56766,-31.05 -0.89607,-2.81187 -1.1565,-8.95803 -0.50868,-12.00495 1.83216,-8.61729 8.05851,-16.33479 16.22136,-20.10624 4.07271,-1.88172 6.63222,-2.38911 12.03768,-2.38638 5.55663,0.003 7.43376,0.4128 12.47907,2.7255 l 2.98167,1.36671 1.56963,-0.50316 c 0.86331,-0.27678 2.48835,-0.91773 3.61125,-1.4244 2.68236,-1.21032 3.336,-1.01205 4.5285,1.37373 l 0.87009,1.74084 0.008,8.15916 c 0.009,9.44904 0.0207,9.39843 -2.68443,12.08199 l -1.73829,1.72446 -1.57533,-1.73349 c -1.35171,-1.48737 -1.70349,-2.14374 -2.47797,-4.6236 -1.55784,-4.98819 -4.25979,-8.5779 -7.73646,-10.27845 -3.09303,-1.5129 -7.47864,-1.00275 -10.75431,1.25097 -4.65828,3.20499 -6.41238,7.38744 -4.69467,11.19384 1.30842,2.89947 10.24548,15.18012 18.80718,25.84347 8.6892,10.82214 11.35656,15.6777 12.63795,23.00574 0.85809,4.90728 0.1749,10.71891 -1.86261,15.84426 -2.82636,7.1097 -11.35398,14.08812 -19.26438,15.76464 -2.49,0.52773 -5.73087,0.52389 -7.70502,-0.009 z m 286.65,-1.65984 -4.05,-0.15432 -2.7596,-1.48347 c -1.7491,-0.94026 -2.6684,-1.5978 -2.5105,-1.79568 2.0183,-2.52906 3.5511,-4.88025 4.7301,-7.25529 l 1.44,-2.90097 0,-36.17799 c 0,-19.89786 -0.1061,-36.67719 -0.2357,-37.28733 -0.1501,-0.70689 -1.3202,-2.54616 -3.225,-5.06958 -1.6441,-2.17812 -2.9893,-4.13796 -2.9893,-4.35519 0,-0.5811 1.7461,-2.46933 2.8195,-3.04899 0.8324,-0.44952 2.4165,-0.5028 15.0305,-0.50541 12.6556,-0.003 14.1953,0.0488 15.0305,0.50247 0.9363,0.50859 2.8195,2.44647 2.8195,2.90136 0,0.13443 -0.4129,0.8385 -0.9175,1.56456 -0.5047,0.72609 -1.8209,2.65614 -2.925,4.28901 l -2.0075,2.96886 -0.2281,7.53114 c -0.1254,4.14213 -0.1893,20.76114 -0.1419,36.93114 0.095,32.23365 0,30.58116 1.9258,32.83389 2.0453,2.38953 5.1757,2.70138 9.0751,0.90405 2.4702,-1.13859 3.7671,-2.349 3.4814,-3.24921 -0.1078,-0.33969 -1.0653,-1.38081 -2.1278,-2.31363 -2.5975,-2.28045 -3.7846,-4.63737 -3.9637,-7.86951 -0.1162,-2.09496 -0.049,-2.45589 0.739,-3.95097 1.2748,-2.41995 3.0697,-3.46164 5.9171,-3.43407 4.906,0.0475 8.399,3.71148 9.198,9.64803 0.1838,1.36605 0.2809,5.39367 0.2234,9.27318 -0.095,6.44496 -0.1425,6.93504 -0.7808,8.13291 -0.8128,1.52505 -2.3745,2.6196 -4.4175,3.09594 -1.5806,0.36852 -31.23,0.57684 -39.15,0.27507 z m -412.21485,-0.24822 c -2.20233,-0.22131 -3.33726,-0.8265 -4.19835,-2.23875 -0.80454,-1.31949 -0.75198,-1.62183 0.55419,-3.18939 1.83645,-2.20395 4.49808,-6.65733 4.85265,-8.11932 0.22986,-0.9477 0.30195,-12.25641 0.24189,-37.95 l -0.0855,-36.6 -0.72033,-1.25739 c -0.81639,-1.425 -1.9734,-2.03829 -3.71436,-1.96887 -2.0538,0.0819 -3.77976,1.20216 -7.16688,4.65174 l -3.20157,3.26064 -0.68172,2.58057 c -0.59766,2.26236 -0.86922,2.78202 -2.20224,4.21416 l -1.52052,1.63356 -1.38861,-1.48452 -1.38861,-1.48455 -0.22137,-3.54276 c -0.32619,-5.22027 -0.0413,-12.34437 0.54903,-13.73232 0.63084,-1.48311 2.07042,-2.80428 4.10718,-3.76938 l 1.65,-0.78186 28.5,-0.01 28.5,-0.01 1.23726,0.66186 c 1.42437,0.76191 2.7126,2.17671 3.03783,3.33627 0.29286,1.04415 0.29304,14.95896 2.1e-4,16.0029 -0.1236,0.44058 -1.09398,1.74831 -2.15646,2.90604 l -1.93173,2.10498 -1.77657,-2.75601 c -0.9771,-1.51584 -2.6013,-4.38066 -3.60936,-6.3663 -1.00803,-1.98567 -2.29476,-4.14996 -2.85936,-4.80957 -1.37625,-1.60785 -3.84729,-2.93016 -5.47563,-2.93016 -2.70135,0 -3.9207,1.83933 -4.35957,6.57609 -0.16863,1.82001 -0.24924,17.53599 -0.19635,38.28078 l 0.0897,35.19312 0.85092,1.73289 c 0.48561,0.98895 1.31427,2.08371 1.93017,2.55 2.11176,1.59888 2.76891,2.38704 2.76891,3.32103 0,1.18458 -1.15749,2.52675 -2.91126,3.37575 -1.36932,0.66285 -1.63467,0.67779 -13.26801,0.7458 -6.5289,0.0382 -12.75492,-0.0195 -13.83558,-0.12801 z m 168.28893,-0.003 c -1.70109,-0.26082 -2.81472,-0.96591 -3.44226,-2.17941 -0.80604,-1.55871 -0.0918,-3.0333 3.58188,-7.39512 1.88055,-2.23278 3.45456,-5.28315 3.4749,-6.73419 0.0174,-1.24623 -0.82392,-1.52808 -3.84825,-1.28904 -2.53341,0.20022 -2.63301,0.18264 -4.53153,-0.80052 -1.1586,-0.6 -2.2098,-1.40388 -2.60757,-1.99413 -1.40949,-2.09154 -1.67409,-7.18224 -0.47202,-9.08079 0.83475,-1.31841 3.13503,-3.15489 8.5254,-6.80649 5.31855,-3.60291 8.2677,-6.33456 9.25944,-8.57652 1.34271,-3.03543 9.88326,-39.14556 9.88506,-41.79492 0,-1.62147 -2.17938,-5.95929 -4.09812,-8.15271 l -1.38165,-1.57944 1.01532,-0.88998 c 0.55842,-0.48948 1.54545,-1.25697 2.19342,-1.7055 l 1.17807,-0.81552 11.29545,0 11.29542,0 1.44729,0.9 c 2.82318,1.75563 2.97297,2.09943 4.80486,11.02821 0.90243,4.39863 3.40167,17.1492 5.55387,28.33464 6.08613,31.63116 9.00069,46.03071 9.58131,47.33715 0.29334,0.66 1.7145,2.74722 3.15816,4.63824 1.44366,1.89102 2.6763,3.57852 2.73921,3.75 0.17055,0.46488 -3.07836,3.1947 -4.33758,3.64455 -0.83184,0.29715 -4.11492,0.39246 -13.69416,0.39744 -11.59446,0.006 -12.69576,-0.0373 -13.8,-0.54387 -1.74243,-0.79932 -2.85,-2.02755 -2.85,-3.16053 0,-1.08396 0.42816,-1.7811 2.50332,-4.07583 3.79839,-4.20033 3.86124,-8.77311 0.16713,-12.16101 -2.76483,-2.53566 -7.89189,-5.88183 -12.79722,-8.35212 l -2.06424,-1.03953 -1.22793,0.54978 c -2.11986,0.94908 -3.46995,2.58579 -4.21992,5.11572 -0.84078,2.83623 -1.46769,6.11217 -1.72005,8.98809 -0.19347,2.20443 -0.1731,2.29722 1.02495,4.6752 0.67227,1.3344 1.74402,3.0219 2.3817,3.75 2.13699,2.44011 2.18403,2.90838 0.45309,4.51221 -1.65774,1.536 -1.88241,1.57416 -9.70083,1.64772 -4.0425,0.038 -7.96917,-0.0258 -8.72592,-0.14178 z m 34.75716,-36.40053 c -0.0653,-0.19593 -0.27915,-0.40971 -0.4752,-0.47508 -0.21921,-0.0731 -0.28626,0.0641 -0.17415,0.35625 0.20925,0.54534 0.82935,0.6588 0.64935,0.11883 z m -2.7651,-10.3188 c -3.01947,-17.13954 -3.46998,-19.43616 -3.95916,-20.18271 l -0.48717,-0.74349 -0.40776,0.77823 c -0.48906,0.93345 -3.05127,11.17413 -4.13649,16.53297 -0.9138,4.51233 -0.954,5.91972 -0.21537,7.54005 1.20357,2.64027 2.95956,3.98343 6.03981,4.61994 1.9617,0.40536 4.61946,0.84216 4.72506,0.77658 0.0413,-0.0255 -0.66021,-4.22037 -1.55892,-9.32157 z M 724.2,537.61942 c -1.62129,-0.2616 -2.51028,-0.71802 -3.13461,-1.60935 -1.0497,-1.49865 -0.35646,-3.07854 2.14167,-4.88094 1.95009,-1.40697 3.13077,-3.00462 3.89325,-5.26818 0.52143,-1.54788 0.54969,-3.58368 0.54969,-39.58182 0,-35.74674 -0.0308,-38.00643 -0.53124,-38.92218 -0.64803,-1.1859 -1.46211,-1.74333 -3.39258,-2.32308 -1.56189,-0.46905 -2.82618,-1.83492 -2.82618,-3.05328 0,-0.76044 1.55754,-2.95059 2.4306,-3.41784 0.46314,-0.24786 4.80465,-0.35991 15.1349,-0.3906 l 14.4855,-0.043 0.803,0.75 c 0.4416,0.4125 0.9981,1.12512 1.2366,1.58358 0.4071,0.78255 0.3641,0.9747 -0.7035,3.13785 -1.1042,2.23767 -1.1366,2.39568 -1.1196,5.46642 0.017,2.9751 0.1084,3.43722 1.5525,7.81215 0.8442,2.5575 1.6961,5.46 1.8932,6.45 0.8553,4.2972 6.6542,23.22426 7.491,24.45 0.2662,0.39003 0.3664,0.37239 0.7515,-0.13233 0.3815,-0.5001 0.4443,-3.2553 0.4443,-19.50825 0,-21.4014 0.2966,-18.96579 -2.7129,-22.27941 -0.9341,-1.02849 -2.0221,-2.48061 -2.4178,-3.22692 -0.6644,-1.25343 -0.685,-1.41747 -0.2693,-2.15085 0.6147,-1.08447 1.7671,-1.88886 3.1732,-2.21499 0.6472,-0.15012 4.7947,-0.27615 9.2167,-0.28008 8.6114,-0.008 9.209,0.0832 10.2419,1.55787 0.7626,1.08873 0.5486,2.02125 -1.1895,5.18496 -0.9065,1.65 -2.0181,3.7425 -2.4702,4.65 l -0.8221,1.65 -0.08,36.40047 c -0.052,23.56434 0.026,36.78822 0.22,37.5 0.1649,0.60474 0.9777,2.24703 1.8062,3.64953 2.8104,4.75716 3.1664,5.56731 2.8441,6.47193 -0.1598,0.44868 -0.8093,1.2348 -1.4433,1.74693 l -1.1527,0.93114 -13.5473,0 c -7.451,0 -14.0496,-0.10662 -14.6635,-0.23694 -0.6139,-0.13032 -1.5251,-0.58107 -2.025,-1.00167 -1.3272,-1.11678 -1.2867,-2.99502 0.1113,-5.16492 1.5714,-2.43915 1.5839,-3.02889 0.1742,-8.23182 -3.8436,-14.18601 -10.033,-35.90694 -10.4818,-36.78456 -0.402,-0.78603 -0.5836,-0.92361 -0.792,-0.6 -0.1517,0.2355 -0.307,9.35238 -0.3536,20.75838 -0.08,19.55136 -0.061,20.3892 0.497,21.64968 0.6191,1.39977 1.5066,2.1351 3.4635,2.86986 0.9116,0.34233 1.4021,0.78867 1.9418,1.76697 0.7203,1.30575 0.7207,1.31151 0.1566,2.35893 -0.311,0.5775 -1.0841,1.39326 -1.718,1.81275 l -1.1526,0.76275 -8.1526,0.0743 c -4.48392,0.0409 -8.76009,-0.0237 -9.50259,-0.14346 z m 73.05,-0.0192 c -0.66,-0.11214 -1.4892,-0.36222 -1.8426,-0.55569 -0.9275,-0.50772 -2.2074,-2.11707 -2.2074,-2.77551 0,-0.31029 1.0462,-1.92771 2.325,-3.59433 1.2787,-1.66659 2.7554,-3.59601 3.2815,-4.2876 1.324,-1.74072 2.0641,-4.42254 1.5272,-5.53401 -0.3925,-0.81255 -0.437,-0.82389 -3.2408,-0.82389 -3.2055,0 -4.0695,-0.32034 -5.9339,-2.20014 -1.3326,-1.34364 -2.137,-3.40626 -2.3667,-6.06885 -0.1394,-1.61523 -0.053,-2.2323 0.4784,-3.43458 1.6238,-3.67101 4.5378,-6.2097 8.5793,-7.47441 5.7784,-1.80825 8.9532,-5.60901 10.7936,-12.92202 0.4152,-1.65 1.9775,-8.265 3.4717,-14.7 1.4941,-6.435 3.3975,-14.529 4.2297,-17.98668 1.3402,-5.56884 1.4743,-6.41577 1.1743,-7.41711 -0.3328,-1.11093 -1.3335,-2.06118 -3.0913,-2.93553 -0.9087,-0.45198 -2.028,-2.47455 -2.028,-3.6645 0,-0.84135 1.1204,-2.11818 2.5438,-2.89905 0.7994,-0.43854 2.2673,-0.49713 12.4562,-0.49713 10.7007,0 11.6272,0.0412 12.6,0.5601 1.3663,0.72879 2.3527,1.6395 2.8858,2.66412 0.2358,0.45333 3.115,14.29083 6.3981,30.75 5.5852,28.00065 8.0673,39.78885 10.6509,50.58435 1.0035,4.19331 1.1531,4.56816 2.5141,6.3 0.796,1.0128 2.1023,2.77008 2.9031,3.90513 l 1.4559,2.0637 -1.029,0.85812 c -0.5659,0.47196 -1.6967,1.19703 -2.5128,1.6113 l -1.4839,0.75318 -12.8508,0 c -10.4382,0 -13.0426,-0.0802 -13.8729,-0.42711 -1.2553,-0.52449 -3.7585,-2.7858 -3.7585,-3.39525 0,-1.15617 1.3669,-2.83899 2.8919,-3.56046 1.8995,-0.89862 3.6065,-2.72031 3.8712,-4.13142 0.2992,-1.59477 -0.5935,-3.82377 -2.5953,-6.48027 -2.6751,-3.5502 -5.9269,-6.12594 -12.464,-9.87279 -2.7004,-1.54776 -2.7668,-1.56786 -3.9826,-1.2036 -2.1931,0.65706 -3.2137,1.86651 -4.4057,5.2209 -1.2521,3.52374 -3.1155,10.60278 -3.1155,11.83596 0,0.5511 0.4198,1.38186 1.1684,2.3121 0.6426,0.79857 2.0379,2.52447 3.1007,3.83532 l 1.9324,2.38338 -1.6454,1.43985 c -0.905,0.79191 -2.1316,1.57488 -2.7257,1.73994 -1.1893,0.33036 -14.1638,0.3501 -16.0804,0.0246 z m 34.742,-37.07613 c 0.4922,-1.03212 0.4669,-1.23975 -1.1623,-9.525 -3.0367,-15.44412 -3.3576,-16.74162 -4.4139,-17.8449 -0.5134,-0.53625 -1.0758,-0.97077 -1.2497,-0.96558 -0.8093,0.0243 -1.5465,1.9689 -2.8824,7.60329 -3.8121,16.07859 -3.8629,16.63032 -1.6337,17.72841 1.4542,0.71634 10.0709,4.03182 10.5194,4.04763 0.1757,0.006 0.5459,-0.46356 0.8226,-1.04385 z M 531.42,536.71978 c -0.6435,-0.47262 -1.49919,-1.21713 -1.90152,-1.65447 l -0.73149,-0.79515 1.071,-1.1205 c 1.65648,-1.7331 4.47732,-5.50884 4.94982,-6.62547 0.64059,-1.51383 0.63624,-75.69186 -0.005,-77.19012 -0.23637,-0.55272 -1.64718,-2.69244 -3.13509,-4.75494 -3.08751,-4.2798 -3.10761,-3.73989 0.21423,-5.75382 l 1.64316,-0.99618 12.09234,-0.0988 c 7.82331,-0.0639 12.62001,0.0144 13.587,0.22179 1.47618,0.31659 4.79508,2.24904 4.79508,2.79198 0,0.38313 -2.24457,4.18836 -3.76623,6.38499 -0.6858,0.99 -1.40145,2.25891 -1.59036,2.81976 -0.51906,1.5414 -0.46152,74.178 0.0599,75.63024 0.33789,0.94101 1.86972,3.30552 4.37286,6.75 1.2996,1.7883 1.37031,2.32983 0.44742,3.42663 -1.57578,1.87269 -1.12362,1.82337 -16.71372,1.82337 l -14.21988,0 -1.17003,-0.85935 z M 456.74427,392.23825 c -2.66508,-0.58029 -4.047,-1.24335 -5.44614,-2.61309 -1.67226,-1.63713 -2.67975,-4.00002 -3.2451,-7.61079 -0.68406,-4.36902 -1.80948,-6.47667 -5.64684,-10.57521 -1.74108,-1.85958 -3.50589,-4.07916 -4.03965,-5.08059 -1.97025,-3.6966 -2.33508,-7.57248 -1.26966,-13.48935 1.43511,-7.96983 2.4225,-16.16523 3.75183,-31.14009 1.05057,-11.83488 1.87488,-19.34409 2.42931,-22.13045 0.6867,-3.45119 1.97676,-7.01925 4.05093,-11.20416 2.64162,-5.32981 2.70729,-5.08685 -2.82603,-10.45697 -6.5469,-6.35381 -8.19918,-8.94229 -7.94562,-12.44773 0.25686,-3.5508 3.26724,-6.57807 12.2376,-12.30621 9.99021,-6.37937 12.20271,-9.07188 10.97496,-13.35615 -0.59739,-2.08462 -1.43787,-3.66795 -4.71678,-8.88539 -2.87133,-4.56896 -3.98475,-7.51359 -5.49042,-14.52054 -1.53276,-7.13305 -2.61735,-11.07007 -2.90703,-10.55245 -0.13035,0.23294 -0.57951,2.43424 -0.99813,4.89178 -2.0151,11.8303 -5.2953,21.50984 -13.04778,38.50284 -1.62231,3.55598 -4.22898,9.43543 -5.79261,13.06543 -5.95155,13.81665 -9.20235,20.6584 -13.04274,27.45 -7.746,13.69863 -17.39829,24.30318 -29.25288,32.13882 -8.44275,5.58051 -15.80304,8.742 -28.57149,12.2724 -9.17283,2.53626 -16.20135,5.78094 -24.61659,11.36412 -9.91782,6.58014 -17.84394,10.01376 -36.43341,15.78312 -9.84128,3.0543 -11.67117,3.72705 -13.98725,5.14224 -0.96951,0.59241 -2.16992,1.32432 -2.66758,1.62645 -2.83043,1.71834 -7.54949,1.85181 -13.75354,0.38892 -4.15681,-0.98013 -4.26404,-1.07967 -4.67784,-4.34145 -0.2607,-2.05494 -0.22589,-2.34825 0.45631,-3.84531 0.40619,-0.89136 0.68213,-1.67709 0.6132,-1.746 -0.0689,-0.0689 -1.10047,-0.0294 -2.29229,0.0882 -1.80004,0.17736 -2.33723,0.36303 -3.17259,1.0965 -1.04703,0.91929 -2.96288,1.55697 -5.70851,1.90002 l -1.60991,0.20112 0,-2.44419 c 0,-3.1023 0.39787,-4.02939 2.55402,-5.95113 3.52474,-3.14157 7.36954,-4.44645 16.62126,-5.64111 6.03291,-0.77901 10.87444,-1.70235 12.53148,-2.38986 1.01687,-0.42192 2.72145,-2.7528 2.29377,-3.13659 -0.13779,-0.12363 -2.10469,-1.07667 -4.37088,-2.11788 l -4.12035,-1.89312 1.28367,-2.42079 c 1.37188,-2.58711 2.15547,-3.2841 6.26729,-5.57445 1.25139,-0.69705 3.44889,-2.56548 6.53738,-5.5584 7.40727,-7.17807 13.28735,-12.23718 20.55668,-17.68671 8.97636,-6.72915 12.74154,-11.08238 15.62949,-18.07039 3.11145,-7.52889 6.0927,-12.21004 15.72057,-24.6845 3.6837,-4.77281 8.99562,-12.30873 8.99562,-12.76189 0,-0.12092 -1.24875,-0.14962 -2.775,-0.0638 -2.55135,0.14351 -3.35526,0.36775 -9.975,2.78237 -10.84449,3.95564 -11.45847,4.117 -14.775,3.88305 -1.52625,-0.10766 -2.775,-0.26806 -2.775,-0.35645 0,-0.31246 1.49883,-4.31079 1.91793,-5.11632 0.70011,-1.34566 1.68579,-2.05548 4.68207,-3.37172 5.70108,-2.50445 18.53577,-7.09275 25.13646,-8.98607 2.27667,-0.65304 4.4778,-1.48398 5.13207,-1.93739 1.62603,-1.12683 2.87214,-3.00286 4.37118,-6.58084 1.67409,-3.99579 2.07921,-4.76385 3.16521,-6.00074 0.96933,-1.104 0.88044,-1.36845 -0.65625,-1.95271 -0.63591,-0.24177 -1.12869,-0.1331 -2.64213,0.58265 -2.30826,1.09163 -4.13604,1.15385 -6.01797,0.20484 -1.29537,-0.65321 -1.33809,-0.71916 -1.3233,-2.04296 0.0213,-1.91661 0.9393,-3.23414 3.67479,-5.27468 3.46008,-2.58108 6.04521,-4.90867 6.56226,-5.90851 0.28347,-0.54818 0.39795,-1.28096 0.29715,-1.90206 -0.22884,-1.41021 0.30729,-4.43793 1.04025,-5.87463 0.95148,-1.8651 3.15972,-3.86611 7.04985,-6.38831 6.14649,-3.98512 13.12125,-9.65625 19.66554,-15.98988 2.29782,-2.22388 4.49631,-4.5948 4.88547,-5.2687 0.38919,-0.6739 1.3407,-3.25027 2.11452,-5.72527 5.77416,-18.46872 18.32004,-30.96578 37.45917,-37.31339 6.69822,-2.2215 9.59784,-2.76294 15.78573,-2.94762 5.89923,-0.17607 8.63829,0.17944 13.26675,1.72196 3.46236,1.1539 5.58927,2.25535 9.52056,4.93042 5.18721,3.52964 7.41582,3.87656 13.60137,2.11728 20.35857,-5.79039 41.21565,-4.90193 69.94272,2.97937 7.32777,2.01038 14.35059,2.63957 33.3186,2.98508 l 8.4,0.15301 5.16699,-3.81306 c 2.84184,-2.09718 5.17059,-3.88303 5.175,-3.96857 0.01,-0.18825 -5.26509,-1.16431 -7.52241,-1.39197 -1.33122,-0.13426 -2.10027,0.008 -4.31958,0.80087 -2.19051,0.78227 -3.31143,0.99353 -5.94012,1.11957 -2.96355,0.1421 -3.45834,0.0844 -5.79711,-0.67642 -2.97228,-0.96687 -6.14382,-2.87915 -11.13039,-6.71108 -1.9428,-1.49294 -4.38138,-3.33025 -5.41905,-4.08291 -1.03764,-0.75265 -2.28033,-1.98923 -2.7615,-2.74796 -2.26962,-3.57884 -1.64694,-8.11757 1.53768,-11.20815 2.42529,-2.35365 4.85754,-3.10066 15.58689,-4.78714 6.85143,-1.07693 11.46795,-2.13927 13.25409,-3.05 0.69822,-0.35602 2.68701,-1.60277 4.41951,-2.77055 l 3.15,-2.123218 -3.15,-0.51654 c -6.09186,-0.99896 -7.01874,-0.85147 -18.15,2.887998 -4.90398,1.64746 -8.47005,2.66554 -10.30251,2.94129 l -2.80248,0.42171 0.15645,-0.78224 c 0.086,-0.43023 0.31914,-2.74096 0.51798,-5.134948 l 0.36153,-4.35272 -0.97821,-2.02825 c -1.47471,-3.05769 -1.01454,-4.97047 1.63419,-6.792841 0.68514,-0.47138 4.54182,-2.55857 8.57043,-4.6382 4.02864,-2.07964 7.76586,-4.20868 8.30499,-4.73122 1.33059,-1.28966 1.78542,-2.75099 2.17551,-6.98956 0.94017,-10.21602 3.50796,-13.26654 14.15292,-16.81359 2.2095,-0.73624 3.78006,-1.47819 4.92573,-2.32699 l 1.68195,-1.24611 -1.44924,-0.38268 c -0.79707,-0.21049 -2.46174,-0.52417 -3.69924,-0.69709 -3.14907,-0.44004 -3.066,-0.39962 -5.54514,-2.69832 l -2.23302,-2.07049 1.88235,-1.34323 c 1.0353,-0.73878 2.21763,-1.47069 2.62737,-1.62648 0.84222,-0.32021 5.13855,-0.77564 11.92926,-1.26456 9.21144,-0.6632 11.92506,-2.02054 21.12807,-10.56819 2.8386,-2.63646 6.05745,-5.42495 7.15299,-6.19663 2.54388,-1.79186 12.86769,-7.03862 17.35812,-8.82171 4.09383,-1.6256 8.22021,-2.65345 13.95,-3.47482 9.65571,-1.3841495 18.47298,-2.0200965 31.5,-2.2719275 4.95,-0.09569 10.35,-0.310536 12,-0.477435 6.44463,-0.651878 12.93297,-2.299139 21.769,-5.526713 9.1689,-3.34915 10.9179,-2.63618701 11.4007,4.64755 0.2398,3.6175655 0.8946,5.9400155 3.4706,12.3094055 0.5672,1.4025 1.4903,4.38304 2.0514,6.62343 0.5611,2.24038 1.3546,4.82943 1.7632,5.75345 0.9032,2.04217 2.7969,4.16499 4.9493,5.5481 1.1789,0.75756 1.7592,1.38128 2.189,2.35275 0.665,1.5034 0.6893,2.04131 0.3938,8.71845 -0.2355,5.32223 0.023,7.96934 1.2277,12.5482 1.8604,7.0741 5.8593,14.79392 12.435,24.00562 3.9534,5.538271 5.3944,9.669671 5.3982,15.477021 0.01,7.566918 -3.4617,13.963878 -9.0547,16.708038 -3.4942,1.7144 -6.3553,2.26293 -10.8802,2.08598 -7.977,-0.31196 -13.6944,-2.97266 -20.1359,-9.37061 -4.0114,-3.9843 -6.3172,-5.65689 -13.84097,-10.040048 -6.17094,-3.595 -6.22647,-3.61085 -7.85337,-2.24191 l -0.864,0.72701 0.71097,2.927258 c 6.96552,28.67927 9.96912,39.99467 11.55504,43.53116 1.18506,2.64259 3.13823,5.28654 7.03003,9.51624 3.8993,4.23789 4.8908,5.61148 6.4443,8.92787 2.4112,5.14729 3.0087,8.95601 3.1487,20.07073 0.098,7.78485 0.1658,8.74819 0.7004,9.95672 0.4975,1.12469 0.7595,1.36944 1.6434,1.53525 1.4298,0.26824 1.9086,0.14294 10.9984,-2.87816 11.961,-3.97539 23.4163,-6.5427 27.45,-6.15199 3.534,0.3423 6.1114,2.28396 7.7626,5.84785 0.94,2.02908 1.2546,3.29967 3.4963,14.12159 1.0082,4.8675 3.2347,14.9925 4.9476,22.5 3.606,15.80515 3.7382,16.53324 3.7412,20.61023 0,3.81289 -0.3656,5.62834 -1.7222,8.48567 -1.09,2.29585 -1.9291,3.23291 -7.9287,8.8541 -1.2328,1.155 -3.6488,3.92243 -5.3691,6.14984 -4.4104,5.71064 -6.2831,7.47886 -9.7366,9.19329 -2.4643,1.22333 -3.1334,1.42292 -5.1612,1.53972 l -2.3299,0.1342 -1.2714,-1.15853 c -2.7401,-2.49693 -4.5786,-6.88556 -4.5786,-10.92981 0,-3.05528 0.759,-8.45817 1.5475,-11.01522 2.0881,-6.77202 6.3255,-10.77572 13.0756,-12.3545 1.7342,-0.40561 2.76,-1.36024 3.7167,-3.45899 0.671,-1.47193 0.6848,-2.56032 0.1041,-8.18353 -0.7902,-7.65101 -2.2459,-14.47925 -3.7607,-17.63914 -2.1655,-4.51758 -6.1824,-6.02643 -11.3029,-4.2457 -1.1373,0.39552 -8.6744,4.37003 -16.7491,8.83224 -27.10921,14.98104 -38.42509,21.09425 -40.20382,21.71942 -2.68716,0.94446 -6.15834,0.71801 -9.08148,-0.59243 -1.21224,-0.54345 -3.01122,-1.13819 -3.99768,-1.32165 -5.99532,-1.11494 -15.15918,3.83707 -19.5801,10.58079 -2.60355,3.97145 -20.27289,38.99678 -27.31728,54.15 -5.0214,10.80165 -6.50835,15.13317 -9.88647,28.8 -2.3385,9.46071 -2.44263,10.18377 -1.86306,12.9351 1.06569,5.05896 3.4971,8.36457 14.44491,19.63866 6.00861,6.18765 7.62465,8.36397 7.8777,10.60887 0.20085,1.78215 -0.056,2.65518 -1.14636,3.89709 -1.64709,1.87593 -3.5286,2.36433 -9.65256,2.50566 -4.31106,0.0995 -5.325,0.20304 -5.325,0.54375 0,0.55482 0.19683,0.57681 -5.69157,-0.636 -7.81746,-1.61016 -11.06466,-3.0873 -13.46658,-6.12594 -1.88667,-2.38683 -2.46591,-4.30914 -2.76231,-9.16719 -0.36321,-5.95311 -1.11339,-8.32242 -3.92259,-12.38898 -2.18622,-3.16467 -2.76153,-4.99323 -2.56776,-8.16102 0.13395,-2.19003 0.50163,-3.54522 2.60454,-9.6 6.18729,-17.81466 11.829,-37.85244 18.3291,-65.1 3.44955,-14.45997 3.30465,-13.73144 3.37128,-16.95 0.0927,-4.47817 -0.95655,-6.27866 -4.12365,-7.07614 -1.90665,-0.4801 -5.04591,-0.0857 -13.2657,1.6668 -14.59374,3.1114 -23.85747,4.01854 -32.20476,3.15364 -3.84906,-0.39882 -6.71937,-1.00385 -12.27063,-2.58651 -9.63159,-2.74596 -26.28753,-6.64247 -34.22937,-8.00765 -6.11562,-1.05126 -10.07256,0.83032 -20.1,9.55781 -3.90609,3.39969 -21.96774,17.83747 -30.51708,24.39415 -3.5019,2.68568 -6.6744,5.3139 -7.05,5.84048 -0.49944,0.7002 -0.68292,1.37492 -0.68292,2.51145 0,1.33958 0.1656,1.78046 1.2,3.19481 6.77493,9.26341 13.22253,18.50551 13.81902,19.80841 1.50921,3.29655 1.64046,6.89661 0.37767,10.3587 -1.21371,3.32745 -7.57254,11.99286 -14.24514,19.41231 -5.60796,6.23562 -6.82017,7.14429 -9.48459,7.10952 -2.68929,-0.0351 -4.76301,-2.07159 -7.26819,-7.13778 -3.9159,-7.91904 -3.30654,-14.65944 1.91979,-21.23625 0.94635,-1.19088 2.3787,-2.74449 3.18303,-3.45249 l 1.46241,-1.28727 -0.55785,-0.96198 c -2.32251,-4.00509 -4.41978,-7.06095 -5.61831,-8.18619 -1.1781,-1.1061 -1.60872,-1.32582 -2.59827,-1.32582 -4.56141,0 -10.0344,4.1754 -12.77088,9.74301 -3.0012,6.10626 -5.0403,17.39124 -6.47226,35.81913 -0.74808,9.62727 -0.63336,11.00436 1.22376,14.69214 1.34712,2.67501 3.19137,4.69482 7.19955,7.88493 6.18252,4.92063 12.28026,12.89031 12.28026,16.05012 0,1.11597 -0.63891,2.18577 -1.6953,2.83866 -0.77535,0.47919 -2.35473,0.77175 -7.22349,1.33812 -6.87285,0.79947 -11.28771,0.89163 -14.03694,0.29301 z M 595.05,76.179131 c 0.10197,-0.165 0.0425,-0.3 -0.1323,-0.3 -0.17472,0 -0.3177,0.135 -0.3177,0.3 0,0.165 0.0595,0.3 0.1323,0.3 0.0728,0 0.21573,-0.135 0.3177,-0.3 z m 15.9,-5.70741 c 3.15048,-1.10648 3.93426,-1.75357 5.11416,-4.22223 l 0.86871,-1.81755 -0.73176,-0.55197 c -2.20731,-1.66498 -7.52958,-0.90199 -11.97336,1.71649 -2.5296,1.49055 -6.30339,5.05638 -7.28085,6.87963 -1.61769,3.01745 -1.91715,2.96772 5.06799,0.84167 3.4293,-1.04378 7.45011,-2.3245 8.93511,-2.84604 z M 231.85243,232.94141 c -2.11452,-1.2002 -2.86381,-4.24308 -2.3612,-9.5888 1.45544,-15.47998 4.86093,-25.93976 12.16494,-37.36398 6.06209,-9.48174 11.72449,-16.46332 20.21134,-24.92004 10.7688,-10.73056 19.8941,-17.73031 34.75235,-26.6575 6.98179,-4.19481 10.97617,-6.21962 12.81298,-6.49507 2.30328,-0.3454 3.87003,0.96362 4.76556,3.98161 l 0.46539,1.5685 -4.77996,13.08858 c -6.48711,17.76312 -10.03537,26.57891 -13.23782,32.88998 -6.76803,13.33774 -16.49698,25.3921 -29.34601,36.36028 -6.32584,5.39987 -13.15361,9.39594 -25.78933,15.09368 -4.14043,1.86701 -5.2831,2.25826 -6.91067,2.36617 -1.38517,0.0918 -2.18102,-0.002 -2.74757,-0.32341 z M 904.05,232.48056 c -5.716,-0.84574 -14.1227,-4.10508 -20.8059,-8.06661 -11.5686,-6.85737 -21.0115,-16.46229 -34.0997,-34.68482 -9.1629,-12.75746 -14.9257,-26.35601 -21.5823,-50.92807 -1.4838,-5.47723 -1.5819,-6.31528 -0.9234,-7.89118 0.517,-1.2374 2.3514,-2.21385 4.1783,-2.22416 2.8756,-0.0162 21.3517,10.86405 31.833,18.74594 17.9392,13.49013 31.7861,30.08057 40.4357,48.44747 3.7109,7.8796 4.6544,10.686 6.2304,18.53019 1.5295,7.61263 1.6693,9.14888 1.1775,12.9371 -0.5593,4.30927 -2.354,5.73923 -6.4436,5.13414 z"
     id="path4200"
     inkscape:connector-curvature="0" />
</svg>
